<svg width="404" height="404" viewBox="0 0 404 404" fill="none" xmlns="http://www.w3.org/2000/svg">
<path d="M0 0H404V404H0V0Z" fill="white"/>
<path d="M52 52H352V352H52V52Z" fill="#00C7B1"/>
<path d="M5 5H399V399H5V5Z" stroke="#00C7B1" stroke-width="10"/>
<path fill-rule="evenodd" clip-rule="evenodd" d="M148.452 194.577V114.312H246.245V124.461H256.394V132.764H264.697V141.067H273V192.732H264.697V201.035H256.394V209.338H246.245V218.564H172.439V233.325H227.794V248.087H218.568V257.312H172.439V288.68H148.452V257.312H130V233.325H148.452V218.564H130V194.577H148.452ZM249.013 156.751H240.71V148.448H232.406V138.3H172.439V194.577H232.406V185.351H240.71V177.048H249.013V156.751Z" fill="black"/>
</svg>
