<svg width="275" height="210" viewBox="0 0 275 210" fill="none" xmlns="http://www.w3.org/2000/svg">
<path fill-rule="evenodd" clip-rule="evenodd" d="M20 6H255V26H275V190H255V210H20V190H0V26H20V6Z" fill="black"/>
<path fill-rule="evenodd" clip-rule="evenodd" d="M80 0H20V20H0V40H60V60H40V80H20V60H0V124H20V144H0V184H20V204H40V184H60V204H140V185H120V165H80V184H60V164H80V145H140V184H160V204H235V193H255V184H275V60H263V41H275V20H255V0H183V20H163V0H100V20H80V0ZM183 40V20H203V40H183ZM183 60H163V40H183V60ZM223 79V60H183V79H163V98H183V117H203V173H215V193H235V173H223V117H203V98H183V79H223ZM243 79V98H223V79H243ZM243 79V60H263V79H243ZM40 184H20V144H40V184ZM80 20V40H60V20H80Z" fill="#00C7B1"/>
<path d="M67.9844 82.9844V74H85.9531V136.891H67.9844V91.9688H59V82.9844H67.9844Z" fill="white"/>
<path d="M132.715 82.9844H114.746V127.906H132.715V82.9844ZM105.762 127.906H96.7775V82.9844H105.762V74H141.699V82.9844H150.684V127.906H141.699V136.891H105.762V127.906Z" fill="white"/>
<path d="M197.446 82.9844H179.477V127.906H197.446V82.9844ZM170.493 127.906H161.508V82.9844H170.493V74H206.43V82.9844H215.414V127.906H206.43V136.891H170.493V127.906Z" fill="white"/>
<path d="M67.9844 82.9844V74H85.9531V136.891H67.9844V91.9688H59V82.9844H67.9844Z" fill="white"/>
<path d="M132.715 82.9844H114.746V127.906H132.715V82.9844ZM105.762 127.906H96.7775V82.9844H105.762V74H141.699V82.9844H150.684V127.906H141.699V136.891H105.762V127.906Z" fill="white"/>
<path d="M197.446 82.9844H179.477V127.906H197.446V82.9844ZM170.493 127.906H161.508V82.9844H170.493V74H206.43V82.9844H215.414V127.906H206.43V136.891H170.493V127.906Z" fill="white"/>
</svg>
