<svg width="275" height="210" viewBox="0 0 275 210" fill="none" xmlns="http://www.w3.org/2000/svg">
<path fill-rule="evenodd" clip-rule="evenodd" d="M20 6H255V26H275V190H255V210H20V190H0V26H20V6Z" fill="black"/>
<path fill-rule="evenodd" clip-rule="evenodd" d="M160 0H20V20H0V60H20V80H0V184H40V204H120V184H140V204H180V184H200V204H255V184H275V161H255V101H275V60H235V40H255V0H180V19H160V0ZM140 40V19H160V40H140ZM80 61H140V40H80V20H40V40H20V60H40V40H80V61ZM60 82V61H80V82H60ZM60 102H40V82H60V102ZM100 144H80V102H60V164H40V184H60V164H100V184H120V164H100V144ZM120 123V144H100V123H120ZM140 102V123H120V102H140ZM160 81H140V102H160V144H180V164H200V184H220V164H200V144H180V102H160V81ZM235 81V101H255V81H235ZM235 81H160V60H235V81Z" fill="#00C7B1"/>
<path d="M122.922 82.9844H95.9688V91.9688H122.922V100.953H131.906V127.906H122.922V136.891H86.9844V127.906H78V109.938H95.9688V127.906H113.938V100.953H78V74H122.922V82.9844Z" fill="white"/>
<path d="M178.668 82.9844H160.699V127.906H178.668V82.9844ZM151.715 127.906H142.731V82.9844H151.715V74H187.652V82.9844H196.637V127.906H187.652V136.891H151.715V127.906Z" fill="white"/>
<path d="M122.922 82.9844H95.9688V91.9688H122.922V100.953H131.906V127.906H122.922V136.891H86.9844V127.906H78V109.938H95.9688V127.906H113.938V100.953H78V74H122.922V82.9844Z" fill="white"/>
<path d="M178.668 82.9844H160.699V127.906H178.668V82.9844ZM151.715 127.906H142.731V82.9844H151.715V74H187.652V82.9844H196.637V127.906H187.652V136.891H151.715V127.906Z" fill="white"/>
</svg>
