<svg width="1080.000000" height="1921.000000" viewBox="0 0 1080 1921" fill="none" xmlns="http://www.w3.org/2000/svg" xmlns:xlink="http://www.w3.org/1999/xlink">
	<desc>
			Created with Pixso.
	</desc>
	<defs>
		<clipPath id="clip7_1">
			<rect id="Frame 1654706712" width="1080.000000" height="1920.000000" fill="white" fill-opacity="0"/>
		</clipPath>
	</defs>
	<rect id="Frame 1654706712" width="1080.000000" height="1920.000000" fill="#FFFFFF" fill-opacity="1.000000"/>
	<g clip-path="url(#clip7_1)">
		<path id="Vector" d="M690 1992.87L690 1973.02C690 1966.64 695.16 1961.46 701.53 1961.46L721.33 1961.46C727.69 1961.46 732.86 1966.64 732.86 1973.02L732.86 1992.87C732.86 1999.26 727.69 2004.43 721.33 2004.43L701.53 2004.43C695.16 2004.43 690 1999.26 690 1992.87Z" fill="#EEEEEE" fill-opacity="1.000000" fill-rule="evenodd"/>
		<path id="Vector" d="M747.88 1992.87L747.88 1973.02C747.88 1966.64 753.04 1961.46 759.41 1961.46L779.21 1961.46C785.58 1961.46 790.74 1966.64 790.74 1973.02L790.74 1992.87C790.74 1999.26 785.58 2004.43 779.21 2004.43L759.41 2004.43C753.04 2004.43 747.88 1999.26 747.88 1992.87Z" fill="#EEEEEE" fill-opacity="1.000000" fill-rule="evenodd"/>
		<path id="Vector" d="M805.76 1992.87L805.76 1973.02C805.76 1966.64 810.92 1961.46 817.29 1961.46L837.09 1961.46C843.46 1961.46 848.62 1966.64 848.62 1973.02L848.62 1992.87C848.62 1999.26 843.46 2004.43 837.09 2004.43L817.29 2004.43C810.92 2004.43 805.76 1999.26 805.76 1992.87Z" fill="#EEEEEE" fill-opacity="1.000000" fill-rule="evenodd"/>
		<path id="Vector" d="M863.64 1992.87L863.64 1973.02C863.64 1966.64 868.8 1961.46 875.17 1961.46L894.97 1961.46C901.34 1961.46 906.5 1966.64 906.5 1973.02L906.5 1992.87C906.5 1999.26 901.34 2004.43 894.97 2004.43L875.17 2004.43C868.8 2004.43 863.64 1999.26 863.64 1992.87Z" fill="#EEEEEE" fill-opacity="1.000000" fill-rule="evenodd"/>
		<path id="Vector" d="M921.52 1992.87L921.52 1973.02C921.52 1966.64 926.68 1961.46 933.05 1961.46L952.85 1961.46C959.22 1961.46 964.38 1966.64 964.38 1973.02L964.38 1992.87C964.38 1999.26 959.22 2004.43 952.85 2004.43L933.05 2004.43C926.68 2004.43 921.52 1999.26 921.52 1992.87Z" fill="#EEEEEE" fill-opacity="1.000000" fill-rule="evenodd"/>
		<path id="Vector" d="M690 1937.71L690 1917.86C690 1911.48 695.16 1906.3 701.53 1906.3L721.33 1906.3C727.69 1906.3 732.86 1911.48 732.86 1917.86L732.86 1937.71C732.86 1944.1 727.69 1949.28 721.33 1949.28L701.53 1949.28C695.16 1949.28 690 1944.1 690 1937.71Z" fill="#EEEEEE" fill-opacity="1.000000" fill-rule="evenodd"/>
		<path id="Vector" d="M747.88 1937.71L747.88 1917.86C747.88 1911.48 753.04 1906.3 759.41 1906.3L779.21 1906.3C785.58 1906.3 790.74 1911.48 790.74 1917.86L790.74 1937.71C790.74 1944.1 785.58 1949.28 779.21 1949.28L759.41 1949.28C753.04 1949.28 747.88 1944.1 747.88 1937.71Z" fill="#EEEEEE" fill-opacity="1.000000" fill-rule="evenodd"/>
		<path id="Vector" d="M805.76 1937.71L805.76 1917.86C805.76 1911.48 810.92 1906.3 817.29 1906.3L837.09 1906.3C843.46 1906.3 848.62 1911.48 848.62 1917.86L848.62 1937.71C848.62 1944.1 843.46 1949.28 837.09 1949.28L817.29 1949.28C810.92 1949.28 805.76 1944.1 805.76 1937.71Z" fill="#EEEEEE" fill-opacity="1.000000" fill-rule="evenodd"/>
		<path id="Vector" d="M863.64 1937.71L863.64 1917.86C863.64 1911.48 868.8 1906.3 875.17 1906.3L894.97 1906.3C901.34 1906.3 906.5 1911.48 906.5 1917.86L906.5 1937.71C906.5 1944.1 901.34 1949.28 894.97 1949.28L875.17 1949.28C868.8 1949.28 863.64 1944.1 863.64 1937.71Z" fill="#EEEEEE" fill-opacity="1.000000" fill-rule="evenodd"/>
		<path id="Vector" d="M921.52 1937.71L921.52 1917.86C921.52 1911.48 926.68 1906.3 933.05 1906.3L952.85 1906.3C959.22 1906.3 964.38 1911.48 964.38 1917.86L964.38 1937.71C964.38 1944.1 959.22 1949.28 952.85 1949.28L933.05 1949.28C926.68 1949.28 921.52 1944.1 921.52 1937.71Z" fill="#EEEEEE" fill-opacity="1.000000" fill-rule="evenodd"/>
		<path id="Vector" d="M690 1882.55L690 1862.69C690 1856.31 695.16 1851.13 701.53 1851.13L721.33 1851.13C727.69 1851.13 732.86 1856.31 732.86 1862.69L732.86 1882.55C732.86 1888.93 727.69 1894.11 721.33 1894.11L701.53 1894.11C695.16 1894.11 690 1888.93 690 1882.55Z" fill="#EEEEEE" fill-opacity="1.000000" fill-rule="evenodd"/>
		<path id="Vector" d="M747.88 1882.55L747.88 1862.69C747.88 1856.31 753.04 1851.13 759.41 1851.13L779.21 1851.13C785.58 1851.13 790.74 1856.31 790.74 1862.69L790.74 1882.55C790.74 1888.93 785.58 1894.11 779.21 1894.11L759.41 1894.11C753.04 1894.11 747.88 1888.93 747.88 1882.55Z" fill="#EEEEEE" fill-opacity="1.000000" fill-rule="evenodd"/>
		<path id="Vector" d="M805.76 1882.55L805.76 1862.69C805.76 1856.31 810.92 1851.13 817.29 1851.13L837.09 1851.13C843.46 1851.13 848.62 1856.31 848.62 1862.69L848.62 1882.55C848.62 1888.93 843.46 1894.11 837.09 1894.11L817.29 1894.11C810.92 1894.11 805.76 1888.93 805.76 1882.55Z" fill="#EEEEEE" fill-opacity="1.000000" fill-rule="evenodd"/>
		<path id="Vector" d="M863.64 1882.55L863.64 1862.69C863.64 1856.31 868.8 1851.13 875.17 1851.13L894.97 1851.13C901.34 1851.13 906.5 1856.31 906.5 1862.69L906.5 1882.55C906.5 1888.93 901.34 1894.11 894.97 1894.11L875.17 1894.11C868.8 1894.11 863.64 1888.93 863.64 1882.55Z" fill="#EEEEEE" fill-opacity="1.000000" fill-rule="evenodd"/>
		<path id="Vector" d="M921.52 1882.55L921.52 1862.69C921.52 1856.31 926.68 1851.13 933.05 1851.13L952.85 1851.13C959.22 1851.13 964.38 1856.31 964.38 1862.69L964.38 1882.55C964.38 1888.93 959.22 1894.11 952.85 1894.11L933.05 1894.11C926.68 1894.11 921.52 1888.93 921.52 1882.55Z" fill="#EEEEEE" fill-opacity="1.000000" fill-rule="evenodd"/>
		<path id="Vector" d="M690 1827.39L690 1807.53C690 1801.15 695.16 1795.97 701.53 1795.97L721.33 1795.97C727.69 1795.97 732.86 1801.15 732.86 1807.53L732.86 1827.39C732.86 1833.77 727.69 1838.95 721.33 1838.95L701.53 1838.95C695.16 1838.95 690 1833.77 690 1827.39Z" fill="#EEEEEE" fill-opacity="1.000000" fill-rule="evenodd"/>
		<path id="Vector" d="M747.88 1827.39L747.88 1807.53C747.88 1801.15 753.04 1795.97 759.41 1795.97L779.21 1795.97C785.58 1795.97 790.74 1801.15 790.74 1807.53L790.74 1827.39C790.74 1833.77 785.58 1838.95 779.21 1838.95L759.41 1838.95C753.04 1838.95 747.88 1833.77 747.88 1827.39Z" fill="#EEEEEE" fill-opacity="1.000000" fill-rule="evenodd"/>
		<path id="Vector" d="M805.76 1827.39L805.76 1807.53C805.76 1801.15 810.92 1795.97 817.29 1795.97L837.09 1795.97C843.46 1795.97 848.62 1801.15 848.62 1807.53L848.62 1827.39C848.62 1833.77 843.46 1838.95 837.09 1838.95L817.29 1838.95C810.92 1838.95 805.76 1833.77 805.76 1827.39Z" fill="#EEEEEE" fill-opacity="1.000000" fill-rule="evenodd"/>
		<path id="Vector" d="M863.64 1827.39L863.64 1807.53C863.64 1801.15 868.8 1795.97 875.17 1795.97L894.97 1795.97C901.34 1795.97 906.5 1801.15 906.5 1807.53L906.5 1827.39C906.5 1833.77 901.34 1838.95 894.97 1838.95L875.17 1838.95C868.8 1838.95 863.64 1833.77 863.64 1827.39Z" fill="#EEEEEE" fill-opacity="1.000000" fill-rule="evenodd"/>
		<path id="Vector" d="M921.52 1827.39L921.52 1807.53C921.52 1801.15 926.68 1795.97 933.05 1795.97L952.85 1795.97C959.22 1795.97 964.38 1801.15 964.38 1807.53L964.38 1827.39C964.38 1833.77 959.22 1838.95 952.85 1838.95L933.05 1838.95C926.68 1838.95 921.52 1833.77 921.52 1827.39Z" fill="#EEEEEE" fill-opacity="1.000000" fill-rule="evenodd"/>
		<path id="Vector" d="M690 1772.23L690 1752.37C690 1745.99 695.16 1740.81 701.53 1740.81L721.33 1740.81C727.69 1740.81 732.86 1745.99 732.86 1752.37L732.86 1772.23C732.86 1778.61 727.69 1783.79 721.33 1783.79L701.53 1783.79C695.16 1783.79 690 1778.61 690 1772.23Z" fill="#EEEEEE" fill-opacity="1.000000" fill-rule="evenodd"/>
		<path id="Vector" d="M747.88 1772.23L747.88 1752.37C747.88 1745.99 753.04 1740.81 759.41 1740.81L779.21 1740.81C785.58 1740.81 790.74 1745.99 790.74 1752.37L790.74 1772.23C790.74 1778.61 785.58 1783.79 779.21 1783.79L759.41 1783.79C753.04 1783.79 747.88 1778.61 747.88 1772.23Z" fill="#EEEEEE" fill-opacity="1.000000" fill-rule="evenodd"/>
		<path id="Vector" d="M805.76 1772.23L805.76 1752.37C805.76 1745.99 810.92 1740.81 817.29 1740.81L837.09 1740.81C843.46 1740.81 848.62 1745.99 848.62 1752.37L848.62 1772.23C848.62 1778.61 843.46 1783.79 837.09 1783.79L817.29 1783.79C810.92 1783.79 805.76 1778.61 805.76 1772.23Z" fill="#EEEEEE" fill-opacity="1.000000" fill-rule="evenodd"/>
		<path id="Vector" d="M863.64 1772.23L863.64 1752.37C863.64 1745.99 868.8 1740.81 875.17 1740.81L894.97 1740.81C901.34 1740.81 906.5 1745.99 906.5 1752.37L906.5 1772.23C906.5 1778.61 901.34 1783.79 894.97 1783.79L875.17 1783.79C868.8 1783.79 863.64 1778.61 863.64 1772.23Z" fill="#EEEEEE" fill-opacity="1.000000" fill-rule="evenodd"/>
		<path id="Vector" d="M921.52 1772.23L921.52 1752.37C921.52 1745.99 926.68 1740.81 933.05 1740.81L952.85 1740.81C959.22 1740.81 964.38 1745.99 964.38 1752.37L964.38 1772.23C964.38 1778.61 959.22 1783.79 952.85 1783.79L933.05 1783.79C926.68 1783.79 921.52 1778.61 921.52 1772.23Z" fill="#EEEEEE" fill-opacity="1.000000" fill-rule="evenodd"/>
		<path id="Vector" d="M698.07 1707.78L698.07 1695.42C698.07 1691.44 701.29 1688.22 705.26 1688.22L717.58 1688.22C721.55 1688.22 724.77 1691.44 724.77 1695.42L724.77 1707.78C724.77 1711.76 721.55 1714.99 717.58 1714.99L705.26 1714.99C701.29 1714.99 698.07 1711.76 698.07 1707.78Z" fill="#EEEEEE" fill-opacity="1.000000" fill-rule="evenodd"/>
		<path id="Vector" d="M755.95 1707.78L755.95 1695.42C755.95 1691.44 759.17 1688.22 763.14 1688.22L775.46 1688.22C779.43 1688.22 782.65 1691.44 782.65 1695.42L782.65 1707.78C782.65 1711.76 779.43 1714.99 775.46 1714.99L763.14 1714.99C759.17 1714.99 755.95 1711.76 755.95 1707.78Z" fill="#EEEEEE" fill-opacity="1.000000" fill-rule="evenodd"/>
		<path id="Vector" d="M813.84 1707.78L813.84 1695.42C813.84 1691.44 817.05 1688.22 821.02 1688.22L833.35 1688.22C837.32 1688.22 840.54 1691.44 840.54 1695.42L840.54 1707.78C840.54 1711.76 837.32 1714.99 833.35 1714.99L821.02 1714.99C817.05 1714.99 813.84 1711.76 813.84 1707.78Z" fill="#EEEEEE" fill-opacity="1.000000" fill-rule="evenodd"/>
		<path id="Vector" d="M871.71 1707.78L871.71 1695.42C871.71 1691.44 874.93 1688.22 878.9 1688.22L891.23 1688.22C895.2 1688.22 898.41 1691.44 898.41 1695.42L898.41 1707.78C898.41 1711.76 895.2 1714.99 891.23 1714.99L878.9 1714.99C874.93 1714.99 871.71 1711.76 871.71 1707.78Z" fill="#EEEEEE" fill-opacity="1.000000" fill-rule="evenodd"/>
		<path id="Vector" d="M929.6 1707.78L929.6 1695.42C929.6 1691.44 932.82 1688.22 936.78 1688.22L949.11 1688.22C953.08 1688.22 956.3 1691.44 956.3 1695.42L956.3 1707.78C956.3 1711.76 953.08 1714.99 949.11 1714.99L936.78 1714.99C932.82 1714.99 929.6 1711.76 929.6 1707.78Z" fill="#EEEEEE" fill-opacity="1.000000" fill-rule="evenodd"/>
		<path id="Vector" d="M698.07 1652.62L698.07 1640.27C698.07 1636.29 701.29 1633.06 705.26 1633.06L717.58 1633.06C721.55 1633.06 724.77 1636.29 724.77 1640.27L724.77 1652.62C724.77 1656.6 721.55 1659.83 717.58 1659.83L705.26 1659.83C701.29 1659.83 698.07 1656.6 698.07 1652.62Z" fill="#EEEEEE" fill-opacity="1.000000" fill-rule="evenodd"/>
		<path id="Vector" d="M755.95 1652.62L755.95 1640.27C755.95 1636.29 759.17 1633.06 763.14 1633.06L775.46 1633.06C779.43 1633.06 782.65 1636.29 782.65 1640.27L782.65 1652.62C782.65 1656.6 779.43 1659.83 775.46 1659.83L763.14 1659.83C759.17 1659.83 755.95 1656.6 755.95 1652.62Z" fill="#EEEEEE" fill-opacity="1.000000" fill-rule="evenodd"/>
		<path id="Vector" d="M813.84 1652.62L813.84 1640.27C813.84 1636.29 817.05 1633.06 821.02 1633.06L833.35 1633.06C837.32 1633.06 840.54 1636.29 840.54 1640.27L840.54 1652.62C840.54 1656.6 837.32 1659.83 833.35 1659.83L821.02 1659.83C817.05 1659.83 813.84 1656.6 813.84 1652.62Z" fill="#EEEEEE" fill-opacity="1.000000" fill-rule="evenodd"/>
		<path id="Vector" d="M871.71 1652.62L871.71 1640.27C871.71 1636.29 874.93 1633.06 878.9 1633.06L891.23 1633.06C895.2 1633.06 898.41 1636.29 898.41 1640.27L898.41 1652.62C898.41 1656.6 895.2 1659.83 891.23 1659.83L878.9 1659.83C874.93 1659.83 871.71 1656.6 871.71 1652.62Z" fill="#EEEEEE" fill-opacity="1.000000" fill-rule="evenodd"/>
		<path id="Vector" d="M929.6 1652.62L929.6 1640.27C929.6 1636.29 932.82 1633.06 936.78 1633.06L949.11 1633.06C953.08 1633.06 956.3 1636.29 956.3 1640.27L956.3 1652.62C956.3 1656.6 953.08 1659.83 949.11 1659.83L936.78 1659.83C932.82 1659.83 929.6 1656.6 929.6 1652.62Z" fill="#EEEEEE" fill-opacity="1.000000" fill-rule="evenodd"/>
		<path id="Vector" d="M698.07 1597.46L698.07 1585.11C698.07 1581.13 701.29 1577.9 705.26 1577.9L717.58 1577.9C721.55 1577.9 724.77 1581.13 724.77 1585.11L724.77 1597.46C724.77 1601.44 721.55 1604.67 717.58 1604.67L705.26 1604.67C701.29 1604.67 698.07 1601.44 698.07 1597.46Z" fill="#EEEEEE" fill-opacity="1.000000" fill-rule="evenodd"/>
		<path id="Vector" d="M755.95 1597.46L755.95 1585.11C755.95 1581.13 759.17 1577.9 763.14 1577.9L775.46 1577.9C779.43 1577.9 782.65 1581.13 782.65 1585.11L782.65 1597.46C782.65 1601.44 779.43 1604.67 775.46 1604.67L763.14 1604.67C759.17 1604.67 755.95 1601.44 755.95 1597.46Z" fill="#EEEEEE" fill-opacity="1.000000" fill-rule="evenodd"/>
		<path id="Vector" d="M813.84 1597.46L813.84 1585.11C813.84 1581.13 817.05 1577.9 821.02 1577.9L833.35 1577.9C837.32 1577.9 840.54 1581.13 840.54 1585.11L840.54 1597.46C840.54 1601.44 837.32 1604.67 833.35 1604.67L821.02 1604.67C817.05 1604.67 813.84 1601.44 813.84 1597.46Z" fill="#EEEEEE" fill-opacity="1.000000" fill-rule="evenodd"/>
		<path id="Vector" d="M871.71 1597.46L871.71 1585.11C871.71 1581.13 874.93 1577.9 878.9 1577.9L891.23 1577.9C895.2 1577.9 898.41 1581.13 898.41 1585.11L898.41 1597.46C898.41 1601.44 895.2 1604.67 891.23 1604.67L878.9 1604.67C874.93 1604.67 871.71 1601.44 871.71 1597.46Z" fill="#EEEEEE" fill-opacity="1.000000" fill-rule="evenodd"/>
		<path id="Vector" d="M929.6 1597.46L929.6 1585.11C929.6 1581.13 932.82 1577.9 936.78 1577.9L949.11 1577.9C953.08 1577.9 956.3 1581.13 956.3 1585.11L956.3 1597.46C956.3 1601.44 953.08 1604.67 949.11 1604.67L936.78 1604.67C932.82 1604.67 929.6 1601.44 929.6 1597.46Z" fill="#EEEEEE" fill-opacity="1.000000" fill-rule="evenodd"/>
		<path id="Vector" d="M698.07 1542.29L698.07 1529.94C698.07 1525.96 701.29 1522.73 705.26 1522.73L717.58 1522.73C721.55 1522.73 724.77 1525.96 724.77 1529.94L724.77 1542.29C724.77 1546.27 721.55 1549.5 717.58 1549.5L705.26 1549.5C701.29 1549.5 698.07 1546.27 698.07 1542.29Z" fill="#EEEEEE" fill-opacity="1.000000" fill-rule="evenodd"/>
		<path id="Vector" d="M755.95 1542.29L755.95 1529.94C755.95 1525.96 759.17 1522.73 763.14 1522.73L775.46 1522.73C779.43 1522.73 782.65 1525.96 782.65 1529.94L782.65 1542.29C782.65 1546.27 779.43 1549.5 775.46 1549.5L763.14 1549.5C759.17 1549.5 755.95 1546.27 755.95 1542.29Z" fill="#EEEEEE" fill-opacity="1.000000" fill-rule="evenodd"/>
		<path id="Vector" d="M813.84 1542.29L813.84 1529.94C813.84 1525.96 817.05 1522.73 821.02 1522.73L833.35 1522.73C837.32 1522.73 840.54 1525.96 840.54 1529.94L840.54 1542.29C840.54 1546.27 837.32 1549.5 833.35 1549.5L821.02 1549.5C817.05 1549.5 813.84 1546.27 813.84 1542.29Z" fill="#EEEEEE" fill-opacity="1.000000" fill-rule="evenodd"/>
		<path id="Vector" d="M871.71 1542.29L871.71 1529.94C871.71 1525.96 874.93 1522.73 878.9 1522.73L891.23 1522.73C895.2 1522.73 898.41 1525.96 898.41 1529.94L898.41 1542.29C898.41 1546.27 895.2 1549.5 891.23 1549.5L878.9 1549.5C874.93 1549.5 871.71 1546.27 871.71 1542.29Z" fill="#EEEEEE" fill-opacity="1.000000" fill-rule="evenodd"/>
		<path id="Vector" d="M929.6 1542.29L929.6 1529.94C929.6 1525.96 932.82 1522.73 936.78 1522.73L949.11 1522.73C953.08 1522.73 956.3 1525.96 956.3 1529.94L956.3 1542.29C956.3 1546.27 953.08 1549.5 949.11 1549.5L936.78 1549.5C932.82 1549.5 929.6 1546.27 929.6 1542.29Z" fill="#EEEEEE" fill-opacity="1.000000" fill-rule="evenodd"/>
		<path id="Vector" d="M698.07 1487.13L698.07 1474.78C698.07 1470.8 701.29 1467.57 705.26 1467.57L717.58 1467.57C721.55 1467.57 724.77 1470.8 724.77 1474.78L724.77 1487.13C724.77 1491.11 721.55 1494.34 717.58 1494.34L705.26 1494.34C701.29 1494.34 698.07 1491.11 698.07 1487.13Z" fill="#EEEEEE" fill-opacity="1.000000" fill-rule="evenodd"/>
		<path id="Vector" d="M755.95 1487.13L755.95 1474.78C755.95 1470.8 759.17 1467.57 763.14 1467.57L775.46 1467.57C779.43 1467.57 782.65 1470.8 782.65 1474.78L782.65 1487.13C782.65 1491.11 779.43 1494.34 775.46 1494.34L763.14 1494.34C759.17 1494.34 755.95 1491.11 755.95 1487.13Z" fill="#EEEEEE" fill-opacity="1.000000" fill-rule="evenodd"/>
		<path id="Vector" d="M813.84 1487.13L813.84 1474.78C813.84 1470.8 817.05 1467.57 821.02 1467.57L833.35 1467.57C837.32 1467.57 840.54 1470.8 840.54 1474.78L840.54 1487.13C840.54 1491.11 837.32 1494.34 833.35 1494.34L821.02 1494.34C817.05 1494.34 813.84 1491.11 813.84 1487.13Z" fill="#EEEEEE" fill-opacity="1.000000" fill-rule="evenodd"/>
		<path id="Vector" d="M871.71 1487.13L871.71 1474.78C871.71 1470.8 874.93 1467.57 878.9 1467.57L891.23 1467.57C895.2 1467.57 898.41 1470.8 898.41 1474.78L898.41 1487.13C898.41 1491.11 895.2 1494.34 891.23 1494.34L878.9 1494.34C874.93 1494.34 871.71 1491.11 871.71 1487.13Z" fill="#EEEEEE" fill-opacity="1.000000" fill-rule="evenodd"/>
		<path id="Vector" d="M929.6 1487.13L929.6 1474.78C929.6 1470.8 932.82 1467.57 936.78 1467.57L949.11 1467.57C953.08 1467.57 956.3 1470.8 956.3 1474.78L956.3 1487.13C956.3 1491.11 953.08 1494.34 949.11 1494.34L936.78 1494.34C932.82 1494.34 929.6 1491.11 929.6 1487.13Z" fill="#EEEEEE" fill-opacity="1.000000" fill-rule="evenodd"/>
		<path id="Vector" d="M703.42 1428.39L703.42 1420.96C703.42 1418.58 705.35 1416.64 707.73 1416.64L715.13 1416.64C717.51 1416.64 719.44 1418.58 719.44 1420.96L719.44 1428.39C719.44 1430.78 717.51 1432.71 715.13 1432.71L707.73 1432.71C705.35 1432.71 703.42 1430.78 703.42 1428.39Z" fill="#EEEEEE" fill-opacity="1.000000" fill-rule="evenodd"/>
		<path id="Vector" d="M761.3 1428.39L761.3 1420.96C761.3 1418.58 763.22 1416.64 765.6 1416.64L773.01 1416.64C775.39 1416.64 777.32 1418.58 777.32 1420.96L777.32 1428.39C777.32 1430.78 775.39 1432.71 773.01 1432.71L765.6 1432.71C763.22 1432.71 761.3 1430.78 761.3 1428.39Z" fill="#EEEEEE" fill-opacity="1.000000" fill-rule="evenodd"/>
		<path id="Vector" d="M819.18 1428.39L819.18 1420.96C819.18 1418.58 821.11 1416.64 823.49 1416.64L830.89 1416.64C833.27 1416.64 835.2 1418.58 835.2 1420.96L835.2 1428.39C835.2 1430.78 833.27 1432.71 830.89 1432.71L823.49 1432.71C821.11 1432.71 819.18 1430.78 819.18 1428.39Z" fill="#EEEEEE" fill-opacity="1.000000" fill-rule="evenodd"/>
		<path id="Vector" d="M877.06 1428.39L877.06 1420.96C877.06 1418.58 878.99 1416.64 881.36 1416.64L888.77 1416.64C891.15 1416.64 893.08 1418.58 893.08 1420.96L893.08 1428.39C893.08 1430.78 891.15 1432.71 888.77 1432.71L881.36 1432.71C878.99 1432.71 877.06 1430.78 877.06 1428.39Z" fill="#EEEEEE" fill-opacity="1.000000" fill-rule="evenodd"/>
		<path id="Vector" d="M934.94 1428.39L934.94 1420.96C934.94 1418.58 936.87 1416.64 939.25 1416.64L946.65 1416.64C949.03 1416.64 950.96 1418.58 950.96 1420.96L950.96 1428.39C950.96 1430.78 949.03 1432.71 946.65 1432.71L939.25 1432.71C936.87 1432.71 934.94 1430.78 934.94 1428.39Z" fill="#EEEEEE" fill-opacity="1.000000" fill-rule="evenodd"/>
		<path id="Vector" d="M703.42 1373.23L703.42 1365.8C703.42 1363.42 705.35 1361.49 707.73 1361.49L715.13 1361.49C717.51 1361.49 719.44 1363.42 719.44 1365.8L719.44 1373.23C719.44 1375.62 717.51 1377.55 715.13 1377.55L707.73 1377.55C705.35 1377.55 703.42 1375.62 703.42 1373.23Z" fill="#EEEEEE" fill-opacity="1.000000" fill-rule="evenodd"/>
		<path id="Vector" d="M761.3 1373.23L761.3 1365.8C761.3 1363.42 763.22 1361.49 765.6 1361.49L773.01 1361.49C775.39 1361.49 777.32 1363.42 777.32 1365.8L777.32 1373.23C777.32 1375.62 775.39 1377.55 773.01 1377.55L765.6 1377.55C763.22 1377.55 761.3 1375.62 761.3 1373.23Z" fill="#EEEEEE" fill-opacity="1.000000" fill-rule="evenodd"/>
		<path id="Vector" d="M819.18 1373.23L819.18 1365.8C819.18 1363.42 821.11 1361.49 823.49 1361.49L830.89 1361.49C833.27 1361.49 835.2 1363.42 835.2 1365.8L835.2 1373.23C835.2 1375.62 833.27 1377.55 830.89 1377.55L823.49 1377.55C821.11 1377.55 819.18 1375.62 819.18 1373.23Z" fill="#EEEEEE" fill-opacity="1.000000" fill-rule="evenodd"/>
		<path id="Vector" d="M877.06 1373.23L877.06 1365.8C877.06 1363.42 878.99 1361.49 881.36 1361.49L888.77 1361.49C891.15 1361.49 893.08 1363.42 893.08 1365.8L893.08 1373.23C893.08 1375.62 891.15 1377.55 888.77 1377.55L881.36 1377.55C878.99 1377.55 877.06 1375.62 877.06 1373.23Z" fill="#EEEEEE" fill-opacity="1.000000" fill-rule="evenodd"/>
		<path id="Vector" d="M934.94 1373.23L934.94 1365.8C934.94 1363.42 936.87 1361.49 939.25 1361.49L946.65 1361.49C949.03 1361.49 950.96 1363.42 950.96 1365.8L950.96 1373.23C950.96 1375.62 949.03 1377.55 946.65 1377.55L939.25 1377.55C936.87 1377.55 934.94 1375.62 934.94 1373.23Z" fill="#EEEEEE" fill-opacity="1.000000" fill-rule="evenodd"/>
		<path id="Vector" d="M703.42 1318.07L703.42 1310.65C703.42 1308.26 705.35 1306.32 707.73 1306.32L715.13 1306.32C717.51 1306.32 719.44 1308.26 719.44 1310.65L719.44 1318.07C719.44 1320.46 717.51 1322.39 715.13 1322.39L707.73 1322.39C705.35 1322.39 703.42 1320.46 703.42 1318.07Z" fill="#EEEEEE" fill-opacity="1.000000" fill-rule="evenodd"/>
		<path id="Vector" d="M761.3 1318.07L761.3 1310.65C761.3 1308.26 763.22 1306.32 765.6 1306.32L773.01 1306.32C775.39 1306.32 777.32 1308.26 777.32 1310.65L777.32 1318.07C777.32 1320.46 775.39 1322.39 773.01 1322.39L765.6 1322.39C763.22 1322.39 761.3 1320.46 761.3 1318.07Z" fill="#EEEEEE" fill-opacity="1.000000" fill-rule="evenodd"/>
		<path id="Vector" d="M819.18 1318.07L819.18 1310.65C819.18 1308.26 821.11 1306.32 823.49 1306.32L830.89 1306.32C833.27 1306.32 835.2 1308.26 835.2 1310.65L835.2 1318.07C835.2 1320.46 833.27 1322.39 830.89 1322.39L823.49 1322.39C821.11 1322.39 819.18 1320.46 819.18 1318.07Z" fill="#EEEEEE" fill-opacity="1.000000" fill-rule="evenodd"/>
		<path id="Vector" d="M877.06 1318.07L877.06 1310.65C877.06 1308.26 878.99 1306.32 881.36 1306.32L888.77 1306.32C891.15 1306.32 893.08 1308.26 893.08 1310.65L893.08 1318.07C893.08 1320.46 891.15 1322.39 888.77 1322.39L881.36 1322.39C878.99 1322.39 877.06 1320.46 877.06 1318.07Z" fill="#EEEEEE" fill-opacity="1.000000" fill-rule="evenodd"/>
		<path id="Vector" d="M934.94 1318.07L934.94 1310.65C934.94 1308.26 936.87 1306.32 939.25 1306.32L946.65 1306.32C949.03 1306.32 950.96 1308.26 950.96 1310.65L950.96 1318.07C950.96 1320.46 949.03 1322.39 946.65 1322.39L939.25 1322.39C936.87 1322.39 934.94 1320.46 934.94 1318.07Z" fill="#EEEEEE" fill-opacity="1.000000" fill-rule="evenodd"/>
		<path id="Vector" d="M703.42 1262.9L703.42 1255.48C703.42 1253.09 705.35 1251.16 707.73 1251.16L715.13 1251.16C717.51 1251.16 719.44 1253.09 719.44 1255.48L719.44 1262.9C719.44 1265.29 717.51 1267.22 715.13 1267.22L707.73 1267.22C705.35 1267.22 703.42 1265.29 703.42 1262.9Z" fill="#EEEEEE" fill-opacity="1.000000" fill-rule="evenodd"/>
		<path id="Vector" d="M761.3 1262.9L761.3 1255.48C761.3 1253.09 763.22 1251.16 765.6 1251.16L773.01 1251.16C775.39 1251.16 777.32 1253.09 777.32 1255.48L777.32 1262.9C777.32 1265.29 775.39 1267.22 773.01 1267.22L765.6 1267.22C763.22 1267.22 761.3 1265.29 761.3 1262.9Z" fill="#EEEEEE" fill-opacity="1.000000" fill-rule="evenodd"/>
		<path id="Vector" d="M819.18 1262.9L819.18 1255.48C819.18 1253.09 821.11 1251.16 823.49 1251.16L830.89 1251.16C833.27 1251.16 835.2 1253.09 835.2 1255.48L835.2 1262.9C835.2 1265.29 833.27 1267.22 830.89 1267.22L823.49 1267.22C821.11 1267.22 819.18 1265.29 819.18 1262.9Z" fill="#EEEEEE" fill-opacity="1.000000" fill-rule="evenodd"/>
		<path id="Vector" d="M877.06 1262.9L877.06 1255.48C877.06 1253.09 878.99 1251.16 881.36 1251.16L888.77 1251.16C891.15 1251.16 893.08 1253.09 893.08 1255.48L893.08 1262.9C893.08 1265.29 891.15 1267.22 888.77 1267.22L881.36 1267.22C878.99 1267.22 877.06 1265.29 877.06 1262.9Z" fill="#EEEEEE" fill-opacity="1.000000" fill-rule="evenodd"/>
		<path id="Vector" d="M934.94 1262.9L934.94 1255.48C934.94 1253.09 936.87 1251.16 939.25 1251.16L946.65 1251.16C949.03 1251.16 950.96 1253.09 950.96 1255.48L950.96 1262.9C950.96 1265.29 949.03 1267.22 946.65 1267.22L939.25 1267.22C936.87 1267.22 934.94 1265.29 934.94 1262.9Z" fill="#EEEEEE" fill-opacity="1.000000" fill-rule="evenodd"/>
		<path id="Vector" d="M703.42 1207.74L703.42 1200.31C703.42 1197.93 705.35 1196 707.73 1196L715.13 1196C717.51 1196 719.44 1197.93 719.44 1200.31L719.44 1207.74C719.44 1210.13 717.51 1212.06 715.13 1212.06L707.73 1212.06C705.35 1212.06 703.42 1210.13 703.42 1207.74Z" fill="#EEEEEE" fill-opacity="1.000000" fill-rule="evenodd"/>
		<path id="Vector" d="M761.3 1207.74L761.3 1200.31C761.3 1197.93 763.22 1196 765.6 1196L773.01 1196C775.39 1196 777.32 1197.93 777.32 1200.31L777.32 1207.74C777.32 1210.13 775.39 1212.06 773.01 1212.06L765.6 1212.06C763.22 1212.06 761.3 1210.13 761.3 1207.74Z" fill="#EEEEEE" fill-opacity="1.000000" fill-rule="evenodd"/>
		<path id="Vector" d="M819.18 1207.74L819.18 1200.31C819.18 1197.93 821.11 1196 823.49 1196L830.89 1196C833.27 1196 835.2 1197.93 835.2 1200.31L835.2 1207.74C835.2 1210.13 833.27 1212.06 830.89 1212.06L823.49 1212.06C821.11 1212.06 819.18 1210.13 819.18 1207.74Z" fill="#EEEEEE" fill-opacity="1.000000" fill-rule="evenodd"/>
		<path id="Vector" d="M877.06 1207.74L877.06 1200.31C877.06 1197.93 878.99 1196 881.36 1196L888.77 1196C891.15 1196 893.08 1197.93 893.08 1200.31L893.08 1207.74C893.08 1210.13 891.15 1212.06 888.77 1212.06L881.36 1212.06C878.99 1212.06 877.06 1210.13 877.06 1207.74Z" fill="#EEEEEE" fill-opacity="1.000000" fill-rule="evenodd"/>
		<path id="Vector" d="M934.94 1207.74L934.94 1200.31C934.94 1197.93 936.87 1196 939.25 1196L946.65 1196C949.03 1196 950.96 1197.93 950.96 1200.31L950.96 1207.74C950.96 1210.13 949.03 1212.06 946.65 1212.06L939.25 1212.06C936.87 1212.06 934.94 1210.13 934.94 1207.74Z" fill="#EEEEEE" fill-opacity="1.000000" fill-rule="evenodd"/>
		<path id="Vector" d="M135 1288.75L135 1266.81C135 1259.77 140.69 1254.06 147.71 1254.06L169.54 1254.06C176.56 1254.06 182.25 1259.77 182.25 1266.81L182.25 1288.75C182.25 1295.8 176.56 1301.51 169.54 1301.51L147.71 1301.51C140.69 1301.51 135 1295.8 135 1288.75Z" fill="#EEEEEE" fill-opacity="1.000000" fill-rule="evenodd"/>
		<path id="Vector" d="M198.81 1288.75L198.81 1266.81C198.81 1259.77 204.5 1254.06 211.52 1254.06L233.35 1254.06C240.37 1254.06 246.06 1259.77 246.06 1266.81L246.06 1288.75C246.06 1295.8 240.37 1301.51 233.35 1301.51L211.52 1301.51C204.5 1301.51 198.81 1295.8 198.81 1288.75Z" fill="#EEEEEE" fill-opacity="1.000000" fill-rule="evenodd"/>
		<path id="Vector" d="M262.61 1288.75L262.61 1266.81C262.61 1259.77 268.31 1254.06 275.32 1254.06L297.15 1254.06C304.17 1254.06 309.87 1259.77 309.87 1266.81L309.87 1288.75C309.87 1295.8 304.17 1301.51 297.15 1301.51L275.32 1301.51C268.31 1301.51 262.61 1295.8 262.61 1288.75Z" fill="#EEEEEE" fill-opacity="1.000000" fill-rule="evenodd"/>
		<path id="Vector" d="M326.43 1288.75L326.43 1266.81C326.43 1259.77 332.12 1254.06 339.14 1254.06L360.97 1254.06C367.99 1254.06 373.68 1259.77 373.68 1266.81L373.68 1288.75C373.68 1295.8 367.99 1301.51 360.97 1301.51L339.14 1301.51C332.12 1301.51 326.43 1295.8 326.43 1288.75Z" fill="#EEEEEE" fill-opacity="1.000000" fill-rule="evenodd"/>
		<path id="Vector" d="M390.24 1288.75L390.24 1266.81C390.24 1259.77 395.93 1254.06 402.95 1254.06L424.78 1254.06C431.8 1254.06 437.49 1259.77 437.49 1266.81L437.49 1288.75C437.49 1295.8 431.8 1301.51 424.78 1301.51L402.95 1301.51C395.93 1301.51 390.24 1295.8 390.24 1288.75Z" fill="#EEEEEE" fill-opacity="1.000000" fill-rule="evenodd"/>
		<path id="Vector" d="M135 1227.84L135 1205.91C135 1198.86 140.69 1193.15 147.71 1193.15L169.54 1193.15C176.56 1193.15 182.25 1198.86 182.25 1205.91L182.25 1227.84C182.25 1234.89 176.56 1240.6 169.54 1240.6L147.71 1240.6C140.69 1240.6 135 1234.89 135 1227.84Z" fill="#EEEEEE" fill-opacity="1.000000" fill-rule="evenodd"/>
		<path id="Vector" d="M198.81 1227.84L198.81 1205.91C198.81 1198.86 204.5 1193.15 211.52 1193.15L233.35 1193.15C240.37 1193.15 246.06 1198.86 246.06 1205.91L246.06 1227.84C246.06 1234.89 240.37 1240.6 233.35 1240.6L211.52 1240.6C204.5 1240.6 198.81 1234.89 198.81 1227.84Z" fill="#EEEEEE" fill-opacity="1.000000" fill-rule="evenodd"/>
		<path id="Vector" d="M262.61 1227.84L262.61 1205.91C262.61 1198.86 268.31 1193.15 275.32 1193.15L297.15 1193.15C304.17 1193.15 309.87 1198.86 309.87 1205.91L309.87 1227.84C309.87 1234.89 304.17 1240.6 297.15 1240.6L275.32 1240.6C268.31 1240.6 262.61 1234.89 262.61 1227.84Z" fill="#EEEEEE" fill-opacity="1.000000" fill-rule="evenodd"/>
		<path id="Vector" d="M326.43 1227.84L326.43 1205.91C326.43 1198.86 332.12 1193.15 339.14 1193.15L360.97 1193.15C367.99 1193.15 373.68 1198.86 373.68 1205.91L373.68 1227.84C373.68 1234.89 367.99 1240.6 360.97 1240.6L339.14 1240.6C332.12 1240.6 326.43 1234.89 326.43 1227.84Z" fill="#EEEEEE" fill-opacity="1.000000" fill-rule="evenodd"/>
		<path id="Vector" d="M390.24 1227.84L390.24 1205.91C390.24 1198.86 395.93 1193.15 402.95 1193.15L424.78 1193.15C431.8 1193.15 437.49 1198.86 437.49 1205.91L437.49 1227.84C437.49 1234.89 431.8 1240.6 424.78 1240.6L402.95 1240.6C395.93 1240.6 390.24 1234.89 390.24 1227.84Z" fill="#EEEEEE" fill-opacity="1.000000" fill-rule="evenodd"/>
		<path id="Vector" d="M135 1166.91L135 1144.99C135 1137.93 140.69 1132.23 147.71 1132.23L169.54 1132.23C176.56 1132.23 182.25 1137.93 182.25 1144.99L182.25 1166.91C182.25 1173.97 176.56 1179.68 169.54 1179.68L147.71 1179.68C140.69 1179.68 135 1173.97 135 1166.91Z" fill="#EEEEEE" fill-opacity="1.000000" fill-rule="evenodd"/>
		<path id="Vector" d="M198.81 1166.91L198.81 1144.99C198.81 1137.93 204.5 1132.23 211.52 1132.23L233.35 1132.23C240.37 1132.23 246.06 1137.93 246.06 1144.99L246.06 1166.91C246.06 1173.97 240.37 1179.68 233.35 1179.68L211.52 1179.68C204.5 1179.68 198.81 1173.97 198.81 1166.91Z" fill="#EEEEEE" fill-opacity="1.000000" fill-rule="evenodd"/>
		<path id="Vector" d="M262.61 1166.91L262.61 1144.99C262.61 1137.93 268.31 1132.23 275.32 1132.23L297.15 1132.23C304.17 1132.23 309.87 1137.93 309.87 1144.99L309.87 1166.91C309.87 1173.97 304.17 1179.68 297.15 1179.68L275.32 1179.68C268.31 1179.68 262.61 1173.97 262.61 1166.91Z" fill="#EEEEEE" fill-opacity="1.000000" fill-rule="evenodd"/>
		<path id="Vector" d="M326.43 1166.91L326.43 1144.99C326.43 1137.93 332.12 1132.23 339.14 1132.23L360.97 1132.23C367.99 1132.23 373.68 1137.93 373.68 1144.99L373.68 1166.91C373.68 1173.97 367.99 1179.68 360.97 1179.68L339.14 1179.68C332.12 1179.68 326.43 1173.97 326.43 1166.91Z" fill="#EEEEEE" fill-opacity="1.000000" fill-rule="evenodd"/>
		<path id="Vector" d="M390.24 1166.91L390.24 1144.99C390.24 1137.93 395.93 1132.23 402.95 1132.23L424.78 1132.23C431.8 1132.23 437.49 1137.93 437.49 1144.99L437.49 1166.91C437.49 1173.97 431.8 1179.68 424.78 1179.68L402.95 1179.68C395.93 1179.68 390.24 1173.97 390.24 1166.91Z" fill="#EEEEEE" fill-opacity="1.000000" fill-rule="evenodd"/>
		<path id="Vector" d="M135 1106L135 1084.07C135 1077.03 140.69 1071.31 147.71 1071.31L169.54 1071.31C176.56 1071.31 182.25 1077.03 182.25 1084.07L182.25 1106C182.25 1113.06 176.56 1118.77 169.54 1118.77L147.71 1118.77C140.69 1118.77 135 1113.06 135 1106Z" fill="#EEEEEE" fill-opacity="1.000000" fill-rule="evenodd"/>
		<path id="Vector" d="M198.81 1106L198.81 1084.07C198.81 1077.03 204.5 1071.31 211.52 1071.31L233.35 1071.31C240.37 1071.31 246.06 1077.03 246.06 1084.07L246.06 1106C246.06 1113.06 240.37 1118.77 233.35 1118.77L211.52 1118.77C204.5 1118.77 198.81 1113.06 198.81 1106Z" fill="#EEEEEE" fill-opacity="1.000000" fill-rule="evenodd"/>
		<path id="Vector" d="M262.61 1106L262.61 1084.07C262.61 1077.03 268.31 1071.31 275.32 1071.31L297.15 1071.31C304.17 1071.31 309.87 1077.03 309.87 1084.07L309.87 1106C309.87 1113.06 304.17 1118.77 297.15 1118.77L275.32 1118.77C268.31 1118.77 262.61 1113.06 262.61 1106Z" fill="#EEEEEE" fill-opacity="1.000000" fill-rule="evenodd"/>
		<path id="Vector" d="M326.43 1106L326.43 1084.07C326.43 1077.03 332.12 1071.31 339.14 1071.31L360.97 1071.31C367.99 1071.31 373.68 1077.03 373.68 1084.07L373.68 1106C373.68 1113.06 367.99 1118.77 360.97 1118.77L339.14 1118.77C332.12 1118.77 326.43 1113.06 326.43 1106Z" fill="#EEEEEE" fill-opacity="1.000000" fill-rule="evenodd"/>
		<path id="Vector" d="M390.24 1106L390.24 1084.07C390.24 1077.03 395.93 1071.31 402.95 1071.31L424.78 1071.31C431.8 1071.31 437.49 1077.03 437.49 1084.07L437.49 1106C437.49 1113.06 431.8 1118.77 424.78 1118.77L402.95 1118.77C395.93 1118.77 390.24 1113.06 390.24 1106Z" fill="#EEEEEE" fill-opacity="1.000000" fill-rule="evenodd"/>
		<path id="Vector" d="M135 1045.07L135 1023.16C135 1016.11 140.69 1010.39 147.71 1010.39L169.54 1010.39C176.56 1010.39 182.25 1016.11 182.25 1023.16L182.25 1045.07C182.25 1052.13 176.56 1057.85 169.54 1057.85L147.71 1057.85C140.69 1057.85 135 1052.13 135 1045.07Z" fill="#EEEEEE" fill-opacity="1.000000" fill-rule="evenodd"/>
		<path id="Vector" d="M198.81 1045.07L198.81 1023.16C198.81 1016.11 204.5 1010.39 211.52 1010.39L233.35 1010.39C240.37 1010.39 246.06 1016.11 246.06 1023.16L246.06 1045.07C246.06 1052.13 240.37 1057.85 233.35 1057.85L211.52 1057.85C204.5 1057.85 198.81 1052.13 198.81 1045.07Z" fill="#EEEEEE" fill-opacity="1.000000" fill-rule="evenodd"/>
		<path id="Vector" d="M262.61 1045.07L262.61 1023.16C262.61 1016.11 268.31 1010.39 275.32 1010.39L297.15 1010.39C304.17 1010.39 309.87 1016.11 309.87 1023.16L309.87 1045.07C309.87 1052.13 304.17 1057.85 297.15 1057.85L275.32 1057.85C268.31 1057.85 262.61 1052.13 262.61 1045.07Z" fill="#EEEEEE" fill-opacity="1.000000" fill-rule="evenodd"/>
		<path id="Vector" d="M326.43 1045.07L326.43 1023.16C326.43 1016.11 332.12 1010.39 339.14 1010.39L360.97 1010.39C367.99 1010.39 373.68 1016.11 373.68 1023.16L373.68 1045.07C373.68 1052.13 367.99 1057.85 360.97 1057.85L339.14 1057.85C332.12 1057.85 326.43 1052.13 326.43 1045.07Z" fill="#EEEEEE" fill-opacity="1.000000" fill-rule="evenodd"/>
		<path id="Vector" d="M390.24 1045.07L390.24 1023.16C390.24 1016.11 395.93 1010.39 402.95 1010.39L424.78 1010.39C431.8 1010.39 437.49 1016.11 437.49 1023.16L437.49 1045.07C437.49 1052.13 431.8 1057.85 424.78 1057.85L402.95 1057.85C395.93 1057.85 390.24 1052.13 390.24 1045.07Z" fill="#EEEEEE" fill-opacity="1.000000" fill-rule="evenodd"/>
		<path id="Vector" d="M143.9 973.92L143.9 960.27C143.9 955.88 147.45 952.31 151.82 952.31L165.41 952.31C169.79 952.31 173.33 955.88 173.33 960.27L173.33 973.92C173.33 978.31 169.79 981.88 165.41 981.88L151.82 981.88C147.45 981.88 143.9 978.31 143.9 973.92Z" fill="#EEEEEE" fill-opacity="1.000000" fill-rule="evenodd"/>
		<path id="Vector" d="M207.71 973.92L207.71 960.27C207.71 955.88 211.25 952.31 215.63 952.31L229.22 952.31C233.59 952.31 237.14 955.88 237.14 960.27L237.14 973.92C237.14 978.31 233.59 981.88 229.22 981.88L215.63 981.88C211.25 981.88 207.71 978.31 207.71 973.92Z" fill="#EEEEEE" fill-opacity="1.000000" fill-rule="evenodd"/>
		<path id="Vector" d="M271.52 973.92L271.52 960.27C271.52 955.88 275.07 952.31 279.44 952.31L293.03 952.31C297.41 952.31 300.95 955.88 300.95 960.27L300.95 973.92C300.95 978.31 297.41 981.88 293.03 981.88L279.44 981.88C275.07 981.88 271.52 978.31 271.52 973.92Z" fill="#EEEEEE" fill-opacity="1.000000" fill-rule="evenodd"/>
		<path id="Vector" d="M335.33 973.92L335.33 960.27C335.33 955.88 338.87 952.31 343.25 952.31L356.84 952.31C361.21 952.31 364.76 955.88 364.76 960.27L364.76 973.92C364.76 978.31 361.21 981.88 356.84 981.88L343.25 981.88C338.87 981.88 335.33 978.31 335.33 973.92Z" fill="#EEEEEE" fill-opacity="1.000000" fill-rule="evenodd"/>
		<path id="Vector" d="M399.14 973.92L399.14 960.27C399.14 955.88 402.69 952.31 407.06 952.31L420.65 952.31C425.03 952.31 428.57 955.88 428.57 960.27L428.57 973.92C428.57 978.31 425.03 981.88 420.65 981.88L407.06 981.88C402.69 981.88 399.14 978.31 399.14 973.92Z" fill="#EEEEEE" fill-opacity="1.000000" fill-rule="evenodd"/>
		<path id="Vector" d="M143.9 913.01L143.9 899.36C143.9 894.96 147.45 891.4 151.82 891.4L165.41 891.4C169.79 891.4 173.33 894.96 173.33 899.36L173.33 913.01C173.33 917.4 169.79 920.96 165.41 920.96L151.82 920.96C147.45 920.96 143.9 917.4 143.9 913.01Z" fill="#EEEEEE" fill-opacity="1.000000" fill-rule="evenodd"/>
		<path id="Vector" d="M207.71 913.01L207.71 899.36C207.71 894.96 211.25 891.4 215.63 891.4L229.22 891.4C233.59 891.4 237.14 894.96 237.14 899.36L237.14 913.01C237.14 917.4 233.59 920.96 229.22 920.96L215.63 920.96C211.25 920.96 207.71 917.4 207.71 913.01Z" fill="#EEEEEE" fill-opacity="1.000000" fill-rule="evenodd"/>
		<path id="Vector" d="M271.52 913.01L271.52 899.36C271.52 894.96 275.07 891.4 279.44 891.4L293.03 891.4C297.41 891.4 300.95 894.96 300.95 899.36L300.95 913.01C300.95 917.4 297.41 920.96 293.03 920.96L279.44 920.96C275.07 920.96 271.52 917.4 271.52 913.01Z" fill="#EEEEEE" fill-opacity="1.000000" fill-rule="evenodd"/>
		<path id="Vector" d="M335.33 913.01L335.33 899.36C335.33 894.96 338.87 891.4 343.25 891.4L356.84 891.4C361.21 891.4 364.76 894.96 364.76 899.36L364.76 913.01C364.76 917.4 361.21 920.96 356.84 920.96L343.25 920.96C338.87 920.96 335.33 917.4 335.33 913.01Z" fill="#EEEEEE" fill-opacity="1.000000" fill-rule="evenodd"/>
		<path id="Vector" d="M399.14 913.01L399.14 899.36C399.14 894.96 402.69 891.4 407.06 891.4L420.65 891.4C425.03 891.4 428.57 894.96 428.57 899.36L428.57 913.01C428.57 917.4 425.03 920.96 420.65 920.96L407.06 920.96C402.69 920.96 399.14 917.4 399.14 913.01Z" fill="#EEEEEE" fill-opacity="1.000000" fill-rule="evenodd"/>
		<path id="Vector" d="M143.9 852.1L143.9 838.45C143.9 834.05 147.45 830.49 151.82 830.49L165.41 830.49C169.79 830.49 173.33 834.05 173.33 838.45L173.33 852.1C173.33 856.49 169.79 860.05 165.41 860.05L151.82 860.05C147.45 860.05 143.9 856.49 143.9 852.1Z" fill="#EEEEEE" fill-opacity="1.000000" fill-rule="evenodd"/>
		<path id="Vector" d="M207.71 852.1L207.71 838.45C207.71 834.05 211.25 830.49 215.63 830.49L229.22 830.49C233.59 830.49 237.14 834.05 237.14 838.45L237.14 852.1C237.14 856.49 233.59 860.05 229.22 860.05L215.63 860.05C211.25 860.05 207.71 856.49 207.71 852.1Z" fill="#EEEEEE" fill-opacity="1.000000" fill-rule="evenodd"/>
		<path id="Vector" d="M271.52 852.1L271.52 838.45C271.52 834.05 275.07 830.49 279.44 830.49L293.03 830.49C297.41 830.49 300.95 834.05 300.95 838.45L300.95 852.1C300.95 856.49 297.41 860.05 293.03 860.05L279.44 860.05C275.07 860.05 271.52 856.49 271.52 852.1Z" fill="#EEEEEE" fill-opacity="1.000000" fill-rule="evenodd"/>
		<path id="Vector" d="M335.33 852.1L335.33 838.45C335.33 834.05 338.87 830.49 343.25 830.49L356.84 830.49C361.21 830.49 364.76 834.05 364.76 838.45L364.76 852.1C364.76 856.49 361.21 860.05 356.84 860.05L343.25 860.05C338.87 860.05 335.33 856.49 335.33 852.1Z" fill="#EEEEEE" fill-opacity="1.000000" fill-rule="evenodd"/>
		<path id="Vector" d="M399.14 852.1L399.14 838.45C399.14 834.05 402.69 830.49 407.06 830.49L420.65 830.49C425.03 830.49 428.57 834.05 428.57 838.45L428.57 852.1C428.57 856.49 425.03 860.05 420.65 860.05L407.06 860.05C402.69 860.05 399.14 856.49 399.14 852.1Z" fill="#EEEEEE" fill-opacity="1.000000" fill-rule="evenodd"/>
		<path id="Vector" d="M143.9 791.16L143.9 777.52C143.9 773.12 147.45 769.56 151.82 769.56L165.41 769.56C169.79 769.56 173.33 773.12 173.33 777.52L173.33 791.16C173.33 795.56 169.79 799.12 165.41 799.12L151.82 799.12C147.45 799.12 143.9 795.56 143.9 791.16Z" fill="#EEEEEE" fill-opacity="1.000000" fill-rule="evenodd"/>
		<path id="Vector" d="M207.71 791.16L207.71 777.52C207.71 773.12 211.25 769.56 215.63 769.56L229.22 769.56C233.59 769.56 237.14 773.12 237.14 777.52L237.14 791.16C237.14 795.56 233.59 799.12 229.22 799.12L215.63 799.12C211.25 799.12 207.71 795.56 207.71 791.16Z" fill="#EEEEEE" fill-opacity="1.000000" fill-rule="evenodd"/>
		<path id="Vector" d="M271.52 791.16L271.52 777.52C271.52 773.12 275.07 769.56 279.44 769.56L293.03 769.56C297.41 769.56 300.95 773.12 300.95 777.52L300.95 791.16C300.95 795.56 297.41 799.12 293.03 799.12L279.44 799.12C275.07 799.12 271.52 795.56 271.52 791.16Z" fill="#EEEEEE" fill-opacity="1.000000" fill-rule="evenodd"/>
		<path id="Vector" d="M335.33 791.16L335.33 777.52C335.33 773.12 338.87 769.56 343.25 769.56L356.84 769.56C361.21 769.56 364.76 773.12 364.76 777.52L364.76 791.16C364.76 795.56 361.21 799.12 356.84 799.12L343.25 799.12C338.87 799.12 335.33 795.56 335.33 791.16Z" fill="#EEEEEE" fill-opacity="1.000000" fill-rule="evenodd"/>
		<path id="Vector" d="M399.14 791.16L399.14 777.52C399.14 773.12 402.69 769.56 407.06 769.56L420.65 769.56C425.03 769.56 428.57 773.12 428.57 777.52L428.57 791.16C428.57 795.56 425.03 799.12 420.65 799.12L407.06 799.12C402.69 799.12 399.14 795.56 399.14 791.16Z" fill="#EEEEEE" fill-opacity="1.000000" fill-rule="evenodd"/>
		<path id="Vector" d="M143.9 730.25L143.9 716.61C143.9 712.21 147.45 708.65 151.82 708.65L165.41 708.65C169.79 708.65 173.33 712.21 173.33 716.61L173.33 730.25C173.33 734.65 169.79 738.21 165.41 738.21L151.82 738.21C147.45 738.21 143.9 734.65 143.9 730.25Z" fill="#EEEEEE" fill-opacity="1.000000" fill-rule="evenodd"/>
		<path id="Vector" d="M207.71 730.25L207.71 716.61C207.71 712.21 211.25 708.65 215.63 708.65L229.22 708.65C233.59 708.65 237.14 712.21 237.14 716.61L237.14 730.25C237.14 734.65 233.59 738.21 229.22 738.21L215.63 738.21C211.25 738.21 207.71 734.65 207.71 730.25Z" fill="#EEEEEE" fill-opacity="1.000000" fill-rule="evenodd"/>
		<path id="Vector" d="M271.52 730.25L271.52 716.61C271.52 712.21 275.07 708.65 279.44 708.65L293.03 708.65C297.41 708.65 300.95 712.21 300.95 716.61L300.95 730.25C300.95 734.65 297.41 738.21 293.03 738.21L279.44 738.21C275.07 738.21 271.52 734.65 271.52 730.25Z" fill="#EEEEEE" fill-opacity="1.000000" fill-rule="evenodd"/>
		<path id="Vector" d="M335.33 730.25L335.33 716.61C335.33 712.21 338.87 708.65 343.25 708.65L356.84 708.65C361.21 708.65 364.76 712.21 364.76 716.61L364.76 730.25C364.76 734.65 361.21 738.21 356.84 738.21L343.25 738.21C338.87 738.21 335.33 734.65 335.33 730.25Z" fill="#EEEEEE" fill-opacity="1.000000" fill-rule="evenodd"/>
		<path id="Vector" d="M399.14 730.25L399.14 716.61C399.14 712.21 402.69 708.65 407.06 708.65L420.65 708.65C425.03 708.65 428.57 712.21 428.57 716.61L428.57 730.25C428.57 734.65 425.03 738.21 420.65 738.21L407.06 738.21C402.69 738.21 399.14 734.65 399.14 730.25Z" fill="#EEEEEE" fill-opacity="1.000000" fill-rule="evenodd"/>
		<path id="Vector" d="M149.79 665.38L149.79 657.18C149.79 654.54 151.92 652.41 154.54 652.41L162.71 652.41C165.33 652.41 167.46 654.54 167.46 657.18L167.46 665.38C167.46 668.01 165.33 670.15 162.71 670.15L154.54 670.15C151.92 670.15 149.79 668.01 149.79 665.38Z" fill="#EEEEEE" fill-opacity="1.000000" fill-rule="evenodd"/>
		<path id="Vector" d="M213.6 665.38L213.6 657.18C213.6 654.54 215.72 652.41 218.35 652.41L226.51 652.41C229.14 652.41 231.26 654.54 231.26 657.18L231.26 665.38C231.26 668.01 229.14 670.15 226.51 670.15L218.35 670.15C215.72 670.15 213.6 668.01 213.6 665.38Z" fill="#EEEEEE" fill-opacity="1.000000" fill-rule="evenodd"/>
		<path id="Vector" d="M277.41 665.38L277.41 657.18C277.41 654.54 279.54 652.41 282.16 652.41L290.32 652.41C292.95 652.41 295.07 654.54 295.07 657.18L295.07 665.38C295.07 668.01 292.95 670.15 290.32 670.15L282.16 670.15C279.54 670.15 277.41 668.01 277.41 665.38Z" fill="#EEEEEE" fill-opacity="1.000000" fill-rule="evenodd"/>
		<path id="Vector" d="M341.22 665.38L341.22 657.18C341.22 654.54 343.34 652.41 345.97 652.41L354.13 652.41C356.76 652.41 358.88 654.54 358.88 657.18L358.88 665.38C358.88 668.01 356.76 670.15 354.13 670.15L345.97 670.15C343.34 670.15 341.22 668.01 341.22 665.38Z" fill="#EEEEEE" fill-opacity="1.000000" fill-rule="evenodd"/>
		<path id="Vector" d="M405.03 665.38L405.03 657.18C405.03 654.54 407.16 652.41 409.78 652.41L417.94 652.41C420.57 652.41 422.69 654.54 422.69 657.18L422.69 665.38C422.69 668.01 420.57 670.15 417.94 670.15L409.78 670.15C407.16 670.15 405.03 668.01 405.03 665.38Z" fill="#EEEEEE" fill-opacity="1.000000" fill-rule="evenodd"/>
		<path id="Vector" d="M149.79 604.47L149.79 596.27C149.79 593.63 151.92 591.5 154.54 591.5L162.71 591.5C165.33 591.5 167.46 593.63 167.46 596.27L167.46 604.47C167.46 607.1 165.33 609.24 162.71 609.24L154.54 609.24C151.92 609.24 149.79 607.1 149.79 604.47Z" fill="#EEEEEE" fill-opacity="1.000000" fill-rule="evenodd"/>
		<path id="Vector" d="M213.6 604.47L213.6 596.27C213.6 593.63 215.72 591.5 218.35 591.5L226.51 591.5C229.14 591.5 231.26 593.63 231.26 596.27L231.26 604.47C231.26 607.1 229.14 609.24 226.51 609.24L218.35 609.24C215.72 609.24 213.6 607.1 213.6 604.47Z" fill="#EEEEEE" fill-opacity="1.000000" fill-rule="evenodd"/>
		<path id="Vector" d="M277.41 604.47L277.41 596.27C277.41 593.63 279.54 591.5 282.16 591.5L290.32 591.5C292.95 591.5 295.07 593.63 295.07 596.27L295.07 604.47C295.07 607.1 292.95 609.24 290.32 609.24L282.16 609.24C279.54 609.24 277.41 607.1 277.41 604.47Z" fill="#EEEEEE" fill-opacity="1.000000" fill-rule="evenodd"/>
		<path id="Vector" d="M341.22 604.47L341.22 596.27C341.22 593.63 343.34 591.5 345.97 591.5L354.13 591.5C356.76 591.5 358.88 593.63 358.88 596.27L358.88 604.47C358.88 607.1 356.76 609.24 354.13 609.24L345.97 609.24C343.34 609.24 341.22 607.1 341.22 604.47Z" fill="#EEEEEE" fill-opacity="1.000000" fill-rule="evenodd"/>
		<path id="Vector" d="M405.03 604.47L405.03 596.27C405.03 593.63 407.16 591.5 409.78 591.5L417.94 591.5C420.57 591.5 422.69 593.63 422.69 596.27L422.69 604.47C422.69 607.1 420.57 609.24 417.94 609.24L409.78 609.24C407.16 609.24 405.03 607.1 405.03 604.47Z" fill="#EEEEEE" fill-opacity="1.000000" fill-rule="evenodd"/>
		<path id="Vector" d="M149.79 543.56L149.79 535.36C149.79 532.72 151.92 530.59 154.54 530.59L162.71 530.59C165.33 530.59 167.46 532.72 167.46 535.36L167.46 543.56C167.46 546.19 165.33 548.33 162.71 548.33L154.54 548.33C151.92 548.33 149.79 546.19 149.79 543.56Z" fill="#EEEEEE" fill-opacity="1.000000" fill-rule="evenodd"/>
		<path id="Vector" d="M213.6 543.56L213.6 535.36C213.6 532.72 215.72 530.59 218.35 530.59L226.51 530.59C229.14 530.59 231.26 532.72 231.26 535.36L231.26 543.56C231.26 546.19 229.14 548.33 226.51 548.33L218.35 548.33C215.72 548.33 213.6 546.19 213.6 543.56Z" fill="#EEEEEE" fill-opacity="1.000000" fill-rule="evenodd"/>
		<path id="Vector" d="M277.41 543.56L277.41 535.36C277.41 532.72 279.54 530.59 282.16 530.59L290.32 530.59C292.95 530.59 295.07 532.72 295.07 535.36L295.07 543.56C295.07 546.19 292.95 548.33 290.32 548.33L282.16 548.33C279.54 548.33 277.41 546.19 277.41 543.56Z" fill="#EEEEEE" fill-opacity="1.000000" fill-rule="evenodd"/>
		<path id="Vector" d="M341.22 543.56L341.22 535.36C341.22 532.72 343.34 530.59 345.97 530.59L354.13 530.59C356.76 530.59 358.88 532.72 358.88 535.36L358.88 543.56C358.88 546.19 356.76 548.33 354.13 548.33L345.97 548.33C343.34 548.33 341.22 546.19 341.22 543.56Z" fill="#EEEEEE" fill-opacity="1.000000" fill-rule="evenodd"/>
		<path id="Vector" d="M405.03 543.56L405.03 535.36C405.03 532.72 407.16 530.59 409.78 530.59L417.94 530.59C420.57 530.59 422.69 532.72 422.69 535.36L422.69 543.56C422.69 546.19 420.57 548.33 417.94 548.33L409.78 548.33C407.16 548.33 405.03 546.19 405.03 543.56Z" fill="#EEEEEE" fill-opacity="1.000000" fill-rule="evenodd"/>
		<path id="Vector" d="M149.79 482.64L149.79 474.44C149.79 471.8 151.92 469.67 154.54 469.67L162.71 469.67C165.33 469.67 167.46 471.8 167.46 474.44L167.46 482.64C167.46 485.27 165.33 487.41 162.71 487.41L154.54 487.41C151.92 487.41 149.79 485.27 149.79 482.64Z" fill="#EEEEEE" fill-opacity="1.000000" fill-rule="evenodd"/>
		<path id="Vector" d="M213.6 482.64L213.6 474.44C213.6 471.8 215.72 469.67 218.35 469.67L226.51 469.67C229.14 469.67 231.26 471.8 231.26 474.44L231.26 482.64C231.26 485.27 229.14 487.41 226.51 487.41L218.35 487.41C215.72 487.41 213.6 485.27 213.6 482.64Z" fill="#EEEEEE" fill-opacity="1.000000" fill-rule="evenodd"/>
		<path id="Vector" d="M277.41 482.64L277.41 474.44C277.41 471.8 279.54 469.67 282.16 469.67L290.32 469.67C292.95 469.67 295.07 471.8 295.07 474.44L295.07 482.64C295.07 485.27 292.95 487.41 290.32 487.41L282.16 487.41C279.54 487.41 277.41 485.27 277.41 482.64Z" fill="#EEEEEE" fill-opacity="1.000000" fill-rule="evenodd"/>
		<path id="Vector" d="M341.22 482.64L341.22 474.44C341.22 471.8 343.34 469.67 345.97 469.67L354.13 469.67C356.76 469.67 358.88 471.8 358.88 474.44L358.88 482.64C358.88 485.27 356.76 487.41 354.13 487.41L345.97 487.41C343.34 487.41 341.22 485.27 341.22 482.64Z" fill="#EEEEEE" fill-opacity="1.000000" fill-rule="evenodd"/>
		<path id="Vector" d="M405.03 482.64L405.03 474.44C405.03 471.8 407.16 469.67 409.78 469.67L417.94 469.67C420.57 469.67 422.69 471.8 422.69 474.44L422.69 482.64C422.69 485.27 420.57 487.41 417.94 487.41L409.78 487.41C407.16 487.41 405.03 485.27 405.03 482.64Z" fill="#EEEEEE" fill-opacity="1.000000" fill-rule="evenodd"/>
		<path id="Vector" d="M149.79 421.73L149.79 413.53C149.79 410.89 151.92 408.76 154.54 408.76L162.71 408.76C165.33 408.76 167.46 410.89 167.46 413.53L167.46 421.73C167.46 424.36 165.33 426.5 162.71 426.5L154.54 426.5C151.92 426.5 149.79 424.36 149.79 421.73Z" fill="#EEEEEE" fill-opacity="1.000000" fill-rule="evenodd"/>
		<path id="Vector" d="M213.6 421.73L213.6 413.53C213.6 410.89 215.72 408.76 218.35 408.76L226.51 408.76C229.14 408.76 231.26 410.89 231.26 413.53L231.26 421.73C231.26 424.36 229.14 426.5 226.51 426.5L218.35 426.5C215.72 426.5 213.6 424.36 213.6 421.73Z" fill="#EEEEEE" fill-opacity="1.000000" fill-rule="evenodd"/>
		<path id="Vector" d="M277.41 421.73L277.41 413.53C277.41 410.89 279.54 408.76 282.16 408.76L290.32 408.76C292.95 408.76 295.07 410.89 295.07 413.53L295.07 421.73C295.07 424.36 292.95 426.5 290.32 426.5L282.16 426.5C279.54 426.5 277.41 424.36 277.41 421.73Z" fill="#EEEEEE" fill-opacity="1.000000" fill-rule="evenodd"/>
		<path id="Vector" d="M341.22 421.73L341.22 413.53C341.22 410.89 343.34 408.76 345.97 408.76L354.13 408.76C356.76 408.76 358.88 410.89 358.88 413.53L358.88 421.73C358.88 424.36 356.76 426.5 354.13 426.5L345.97 426.5C343.34 426.5 341.22 424.36 341.22 421.73Z" fill="#EEEEEE" fill-opacity="1.000000" fill-rule="evenodd"/>
		<path id="Vector" d="M405.03 421.73L405.03 413.53C405.03 410.89 407.16 408.76 409.78 408.76L417.94 408.76C420.57 408.76 422.69 410.89 422.69 413.53L422.69 421.73C422.69 424.36 420.57 426.5 417.94 426.5L409.78 426.5C407.16 426.5 405.03 424.36 405.03 421.73Z" fill="#EEEEEE" fill-opacity="1.000000" fill-rule="evenodd"/>
		<path id="Vector" d="M-39 1917.19L-39 1910.19C-39 1907.94 -37.19 1906.12 -34.96 1906.12L-28 1906.12C-25.76 1906.12 -23.95 1907.94 -23.95 1910.19L-23.95 1917.19C-23.95 1919.45 -25.76 1921.27 -28 1921.27L-34.96 1921.27C-37.19 1921.27 -39 1919.45 -39 1917.19Z" fill="#EEEEEE" fill-opacity="1.000000" fill-rule="evenodd"/>
		<path id="Vector" d="M-18.68 1917.19L-18.68 1910.19C-18.68 1907.94 -16.86 1906.12 -14.63 1906.12L-7.67 1906.12C-5.44 1906.12 -3.62 1907.94 -3.62 1910.19L-3.62 1917.19C-3.62 1919.45 -5.44 1921.27 -7.67 1921.27L-14.63 1921.27C-16.86 1921.27 -18.68 1919.45 -18.68 1917.19Z" fill="#EEEEEE" fill-opacity="1.000000" fill-rule="evenodd"/>
		<path id="Vector" d="M1.65 1917.19L1.65 1910.19C1.65 1907.94 3.46 1906.12 5.7 1906.12L12.65 1906.12C14.89 1906.12 16.7 1907.94 16.7 1910.19L16.7 1917.19C16.7 1919.45 14.89 1921.27 12.65 1921.27L5.7 1921.27C3.46 1921.27 1.65 1919.45 1.65 1917.19Z" fill="#EEEEEE" fill-opacity="1.000000" fill-rule="evenodd"/>
		<path id="Vector" d="M21.98 1917.19L21.98 1910.19C21.98 1907.94 23.8 1906.12 26.03 1906.12L32.99 1906.12C35.22 1906.12 37.04 1907.94 37.04 1910.19L37.04 1917.19C37.04 1919.45 35.22 1921.27 32.99 1921.27L26.03 1921.27C23.8 1921.27 21.98 1919.45 21.98 1917.19Z" fill="#EEEEEE" fill-opacity="1.000000" fill-rule="evenodd"/>
		<path id="Vector" d="M42.31 1917.19L42.31 1910.19C42.31 1907.94 44.12 1906.12 46.36 1906.12L53.32 1906.12C55.55 1906.12 57.37 1907.94 57.37 1910.19L57.37 1917.19C57.37 1919.45 55.55 1921.27 53.32 1921.27L46.36 1921.27C44.12 1921.27 42.31 1919.45 42.31 1917.19Z" fill="#EEEEEE" fill-opacity="1.000000" fill-rule="evenodd"/>
		<path id="Vector" d="M-39 1897.74L-39 1890.74C-39 1888.49 -37.19 1886.67 -34.96 1886.67L-28 1886.67C-25.76 1886.67 -23.95 1888.49 -23.95 1890.74L-23.95 1897.74C-23.95 1900 -25.76 1901.82 -28 1901.82L-34.96 1901.82C-37.19 1901.82 -39 1900 -39 1897.74Z" fill="#EEEEEE" fill-opacity="1.000000" fill-rule="evenodd"/>
		<path id="Vector" d="M-18.68 1897.74L-18.68 1890.74C-18.68 1888.49 -16.86 1886.67 -14.63 1886.67L-7.67 1886.67C-5.44 1886.67 -3.62 1888.49 -3.62 1890.74L-3.62 1897.74C-3.62 1900 -5.44 1901.82 -7.67 1901.82L-14.63 1901.82C-16.86 1901.82 -18.68 1900 -18.68 1897.74Z" fill="#EEEEEE" fill-opacity="1.000000" fill-rule="evenodd"/>
		<path id="Vector" d="M1.65 1897.74L1.65 1890.74C1.65 1888.49 3.46 1886.67 5.7 1886.67L12.65 1886.67C14.89 1886.67 16.7 1888.49 16.7 1890.74L16.7 1897.74C16.7 1900 14.89 1901.82 12.65 1901.82L5.7 1901.82C3.46 1901.82 1.65 1900 1.65 1897.74Z" fill="#EEEEEE" fill-opacity="1.000000" fill-rule="evenodd"/>
		<path id="Vector" d="M21.98 1897.74L21.98 1890.74C21.98 1888.49 23.8 1886.67 26.03 1886.67L32.99 1886.67C35.22 1886.67 37.04 1888.49 37.04 1890.74L37.04 1897.74C37.04 1900 35.22 1901.82 32.99 1901.82L26.03 1901.82C23.8 1901.82 21.98 1900 21.98 1897.74Z" fill="#EEEEEE" fill-opacity="1.000000" fill-rule="evenodd"/>
		<path id="Vector" d="M42.31 1897.74L42.31 1890.74C42.31 1888.49 44.12 1886.67 46.36 1886.67L53.32 1886.67C55.55 1886.67 57.37 1888.49 57.37 1890.74L57.37 1897.74C57.37 1900 55.55 1901.82 53.32 1901.82L46.36 1901.82C44.12 1901.82 42.31 1900 42.31 1897.74Z" fill="#EEEEEE" fill-opacity="1.000000" fill-rule="evenodd"/>
		<path id="Vector" d="M-39 1878.28L-39 1871.28C-39 1869.03 -37.19 1867.21 -34.96 1867.21L-28 1867.21C-25.76 1867.21 -23.95 1869.03 -23.95 1871.28L-23.95 1878.28C-23.95 1880.54 -25.76 1882.36 -28 1882.36L-34.96 1882.36C-37.19 1882.36 -39 1880.54 -39 1878.28Z" fill="#EEEEEE" fill-opacity="1.000000" fill-rule="evenodd"/>
		<path id="Vector" d="M-18.68 1878.28L-18.68 1871.28C-18.68 1869.03 -16.86 1867.21 -14.63 1867.21L-7.67 1867.21C-5.44 1867.21 -3.62 1869.03 -3.62 1871.28L-3.62 1878.28C-3.62 1880.54 -5.44 1882.36 -7.67 1882.36L-14.63 1882.36C-16.86 1882.36 -18.68 1880.54 -18.68 1878.28Z" fill="#EEEEEE" fill-opacity="1.000000" fill-rule="evenodd"/>
		<path id="Vector" d="M1.65 1878.28L1.65 1871.28C1.65 1869.03 3.46 1867.21 5.7 1867.21L12.65 1867.21C14.89 1867.21 16.7 1869.03 16.7 1871.28L16.7 1878.28C16.7 1880.54 14.89 1882.36 12.65 1882.36L5.7 1882.36C3.46 1882.36 1.65 1880.54 1.65 1878.28Z" fill="#EEEEEE" fill-opacity="1.000000" fill-rule="evenodd"/>
		<path id="Vector" d="M21.98 1878.28L21.98 1871.28C21.98 1869.03 23.8 1867.21 26.03 1867.21L32.99 1867.21C35.22 1867.21 37.04 1869.03 37.04 1871.28L37.04 1878.28C37.04 1880.54 35.22 1882.36 32.99 1882.36L26.03 1882.36C23.8 1882.36 21.98 1880.54 21.98 1878.28Z" fill="#EEEEEE" fill-opacity="1.000000" fill-rule="evenodd"/>
		<path id="Vector" d="M42.31 1878.28L42.31 1871.28C42.31 1869.03 44.12 1867.21 46.36 1867.21L53.32 1867.21C55.55 1867.21 57.37 1869.03 57.37 1871.28L57.37 1878.28C57.37 1880.54 55.55 1882.36 53.32 1882.36L46.36 1882.36C44.12 1882.36 42.31 1880.54 42.31 1878.28Z" fill="#EEEEEE" fill-opacity="1.000000" fill-rule="evenodd"/>
		<path id="Vector" d="M-39 1858.83L-39 1851.83C-39 1849.58 -37.19 1847.76 -34.96 1847.76L-28 1847.76C-25.76 1847.76 -23.95 1849.58 -23.95 1851.83L-23.95 1858.83C-23.95 1861.09 -25.76 1862.91 -28 1862.91L-34.96 1862.91C-37.19 1862.91 -39 1861.09 -39 1858.83Z" fill="#EEEEEE" fill-opacity="1.000000" fill-rule="evenodd"/>
		<path id="Vector" d="M-18.68 1858.83L-18.68 1851.83C-18.68 1849.58 -16.86 1847.76 -14.63 1847.76L-7.67 1847.76C-5.44 1847.76 -3.62 1849.58 -3.62 1851.83L-3.62 1858.83C-3.62 1861.09 -5.44 1862.91 -7.67 1862.91L-14.63 1862.91C-16.86 1862.91 -18.68 1861.09 -18.68 1858.83Z" fill="#EEEEEE" fill-opacity="1.000000" fill-rule="evenodd"/>
		<path id="Vector" d="M1.65 1858.83L1.65 1851.83C1.65 1849.58 3.46 1847.76 5.7 1847.76L12.65 1847.76C14.89 1847.76 16.7 1849.58 16.7 1851.83L16.7 1858.83C16.7 1861.09 14.89 1862.91 12.65 1862.91L5.7 1862.91C3.46 1862.91 1.65 1861.09 1.65 1858.83Z" fill="#EEEEEE" fill-opacity="1.000000" fill-rule="evenodd"/>
		<path id="Vector" d="M21.98 1858.83L21.98 1851.83C21.98 1849.58 23.8 1847.76 26.03 1847.76L32.99 1847.76C35.22 1847.76 37.04 1849.58 37.04 1851.83L37.04 1858.83C37.04 1861.09 35.22 1862.91 32.99 1862.91L26.03 1862.91C23.8 1862.91 21.98 1861.09 21.98 1858.83Z" fill="#EEEEEE" fill-opacity="1.000000" fill-rule="evenodd"/>
		<path id="Vector" d="M42.31 1858.83L42.31 1851.83C42.31 1849.58 44.12 1847.76 46.36 1847.76L53.32 1847.76C55.55 1847.76 57.37 1849.58 57.37 1851.83L57.37 1858.83C57.37 1861.09 55.55 1862.91 53.32 1862.91L46.36 1862.91C44.12 1862.91 42.31 1861.09 42.31 1858.83Z" fill="#EEEEEE" fill-opacity="1.000000" fill-rule="evenodd"/>
		<path id="Vector" d="M-39 1839.39L-39 1832.38C-39 1830.13 -37.19 1828.31 -34.96 1828.31L-28 1828.31C-25.76 1828.31 -23.95 1830.13 -23.95 1832.38L-23.95 1839.39C-23.95 1841.64 -25.76 1843.46 -28 1843.46L-34.96 1843.46C-37.19 1843.46 -39 1841.64 -39 1839.39Z" fill="#EEEEEE" fill-opacity="1.000000" fill-rule="evenodd"/>
		<path id="Vector" d="M-18.68 1839.39L-18.68 1832.38C-18.68 1830.13 -16.86 1828.31 -14.63 1828.31L-7.67 1828.31C-5.44 1828.31 -3.62 1830.13 -3.62 1832.38L-3.62 1839.39C-3.62 1841.64 -5.44 1843.46 -7.67 1843.46L-14.63 1843.46C-16.86 1843.46 -18.68 1841.64 -18.68 1839.39Z" fill="#EEEEEE" fill-opacity="1.000000" fill-rule="evenodd"/>
		<path id="Vector" d="M1.65 1839.39L1.65 1832.38C1.65 1830.13 3.46 1828.31 5.7 1828.31L12.65 1828.31C14.89 1828.31 16.7 1830.13 16.7 1832.38L16.7 1839.39C16.7 1841.64 14.89 1843.46 12.65 1843.46L5.7 1843.46C3.46 1843.46 1.65 1841.64 1.65 1839.39Z" fill="#EEEEEE" fill-opacity="1.000000" fill-rule="evenodd"/>
		<path id="Vector" d="M21.98 1839.39L21.98 1832.38C21.98 1830.13 23.8 1828.31 26.03 1828.31L32.99 1828.31C35.22 1828.31 37.04 1830.13 37.04 1832.38L37.04 1839.39C37.04 1841.64 35.22 1843.46 32.99 1843.46L26.03 1843.46C23.8 1843.46 21.98 1841.64 21.98 1839.39Z" fill="#EEEEEE" fill-opacity="1.000000" fill-rule="evenodd"/>
		<path id="Vector" d="M42.31 1839.39L42.31 1832.38C42.31 1830.13 44.12 1828.31 46.36 1828.31L53.32 1828.31C55.55 1828.31 57.37 1830.13 57.37 1832.38L57.37 1839.39C57.37 1841.64 55.55 1843.46 53.32 1843.46L46.36 1843.46C44.12 1843.46 42.31 1841.64 42.31 1839.39Z" fill="#EEEEEE" fill-opacity="1.000000" fill-rule="evenodd"/>
		<path id="Vector" d="M-36.17 1816.66L-36.17 1812.31C-36.17 1810.9 -35.04 1809.76 -33.65 1809.76L-29.32 1809.76C-27.92 1809.76 -26.79 1810.9 -26.79 1812.31L-26.79 1816.66C-26.79 1818.07 -27.92 1819.2 -29.32 1819.2L-33.65 1819.2C-35.04 1819.2 -36.17 1818.07 -36.17 1816.66Z" fill="#EEEEEE" fill-opacity="1.000000" fill-rule="evenodd"/>
		<path id="Vector" d="M-15.84 1816.66L-15.84 1812.31C-15.84 1810.9 -14.71 1809.76 -13.31 1809.76L-8.98 1809.76C-7.59 1809.76 -6.46 1810.9 -6.46 1812.31L-6.46 1816.66C-6.46 1818.07 -7.59 1819.2 -8.98 1819.2L-13.31 1819.2C-14.71 1819.2 -15.84 1818.07 -15.84 1816.66Z" fill="#EEEEEE" fill-opacity="1.000000" fill-rule="evenodd"/>
		<path id="Vector" d="M4.49 1816.66L4.49 1812.31C4.49 1810.9 5.62 1809.76 7.01 1809.76L11.34 1809.76C12.74 1809.76 13.87 1810.9 13.87 1812.31L13.87 1816.66C13.87 1818.07 12.74 1819.2 11.34 1819.2L7.01 1819.2C5.62 1819.2 4.49 1818.07 4.49 1816.66Z" fill="#EEEEEE" fill-opacity="1.000000" fill-rule="evenodd"/>
		<path id="Vector" d="M24.82 1816.66L24.82 1812.31C24.82 1810.9 25.95 1809.76 27.34 1809.76L31.67 1809.76C33.06 1809.76 34.2 1810.9 34.2 1812.31L34.2 1816.66C34.2 1818.07 33.06 1819.2 31.67 1819.2L27.34 1819.2C25.95 1819.2 24.82 1818.07 24.82 1816.66Z" fill="#EEEEEE" fill-opacity="1.000000" fill-rule="evenodd"/>
		<path id="Vector" d="M45.15 1816.66L45.15 1812.31C45.15 1810.9 46.28 1809.76 47.67 1809.76L52 1809.76C53.39 1809.76 54.52 1810.9 54.52 1812.31L54.52 1816.66C54.52 1818.07 53.39 1819.2 52 1819.2L47.67 1819.2C46.28 1819.2 45.15 1818.07 45.15 1816.66Z" fill="#EEEEEE" fill-opacity="1.000000" fill-rule="evenodd"/>
		<path id="Vector" d="M-36.17 1797.21L-36.17 1792.86C-36.17 1791.45 -35.04 1790.31 -33.65 1790.31L-29.32 1790.31C-27.92 1790.31 -26.79 1791.45 -26.79 1792.86L-26.79 1797.21C-26.79 1798.62 -27.92 1799.76 -29.32 1799.76L-33.65 1799.76C-35.04 1799.76 -36.17 1798.62 -36.17 1797.21Z" fill="#EEEEEE" fill-opacity="1.000000" fill-rule="evenodd"/>
		<path id="Vector" d="M-15.84 1797.21L-15.84 1792.86C-15.84 1791.45 -14.71 1790.31 -13.31 1790.31L-8.98 1790.31C-7.59 1790.31 -6.46 1791.45 -6.46 1792.86L-6.46 1797.21C-6.46 1798.62 -7.59 1799.76 -8.98 1799.76L-13.31 1799.76C-14.71 1799.76 -15.84 1798.62 -15.84 1797.21Z" fill="#EEEEEE" fill-opacity="1.000000" fill-rule="evenodd"/>
		<path id="Vector" d="M4.49 1797.21L4.49 1792.86C4.49 1791.45 5.62 1790.31 7.01 1790.31L11.34 1790.31C12.74 1790.31 13.87 1791.45 13.87 1792.86L13.87 1797.21C13.87 1798.62 12.74 1799.76 11.34 1799.76L7.01 1799.76C5.62 1799.76 4.49 1798.62 4.49 1797.21Z" fill="#EEEEEE" fill-opacity="1.000000" fill-rule="evenodd"/>
		<path id="Vector" d="M24.82 1797.21L24.82 1792.86C24.82 1791.45 25.95 1790.31 27.34 1790.31L31.67 1790.31C33.06 1790.31 34.2 1791.45 34.2 1792.86L34.2 1797.21C34.2 1798.62 33.06 1799.76 31.67 1799.76L27.34 1799.76C25.95 1799.76 24.82 1798.62 24.82 1797.21Z" fill="#EEEEEE" fill-opacity="1.000000" fill-rule="evenodd"/>
		<path id="Vector" d="M45.15 1797.21L45.15 1792.86C45.15 1791.45 46.28 1790.31 47.67 1790.31L52 1790.31C53.39 1790.31 54.52 1791.45 54.52 1792.86L54.52 1797.21C54.52 1798.62 53.39 1799.76 52 1799.76L47.67 1799.76C46.28 1799.76 45.15 1798.62 45.15 1797.21Z" fill="#EEEEEE" fill-opacity="1.000000" fill-rule="evenodd"/>
		<path id="Vector" d="M-36.17 1777.75L-36.17 1773.4C-36.17 1771.99 -35.04 1770.85 -33.65 1770.85L-29.32 1770.85C-27.92 1770.85 -26.79 1771.99 -26.79 1773.4L-26.79 1777.75C-26.79 1779.16 -27.92 1780.3 -29.32 1780.3L-33.65 1780.3C-35.04 1780.3 -36.17 1779.16 -36.17 1777.75Z" fill="#EEEEEE" fill-opacity="1.000000" fill-rule="evenodd"/>
		<path id="Vector" d="M-15.84 1777.75L-15.84 1773.4C-15.84 1771.99 -14.71 1770.85 -13.31 1770.85L-8.98 1770.85C-7.59 1770.85 -6.46 1771.99 -6.46 1773.4L-6.46 1777.75C-6.46 1779.16 -7.59 1780.3 -8.98 1780.3L-13.31 1780.3C-14.71 1780.3 -15.84 1779.16 -15.84 1777.75Z" fill="#EEEEEE" fill-opacity="1.000000" fill-rule="evenodd"/>
		<path id="Vector" d="M4.49 1777.75L4.49 1773.4C4.49 1771.99 5.62 1770.85 7.01 1770.85L11.34 1770.85C12.74 1770.85 13.87 1771.99 13.87 1773.4L13.87 1777.75C13.87 1779.16 12.74 1780.3 11.34 1780.3L7.01 1780.3C5.62 1780.3 4.49 1779.16 4.49 1777.75Z" fill="#EEEEEE" fill-opacity="1.000000" fill-rule="evenodd"/>
		<path id="Vector" d="M24.82 1777.75L24.82 1773.4C24.82 1771.99 25.95 1770.85 27.34 1770.85L31.67 1770.85C33.06 1770.85 34.2 1771.99 34.2 1773.4L34.2 1777.75C34.2 1779.16 33.06 1780.3 31.67 1780.3L27.34 1780.3C25.95 1780.3 24.82 1779.16 24.82 1777.75Z" fill="#EEEEEE" fill-opacity="1.000000" fill-rule="evenodd"/>
		<path id="Vector" d="M45.15 1777.75L45.15 1773.4C45.15 1771.99 46.28 1770.85 47.67 1770.85L52 1770.85C53.39 1770.85 54.52 1771.99 54.52 1773.4L54.52 1777.75C54.52 1779.16 53.39 1780.3 52 1780.3L47.67 1780.3C46.28 1780.3 45.15 1779.16 45.15 1777.75Z" fill="#EEEEEE" fill-opacity="1.000000" fill-rule="evenodd"/>
		<path id="Vector" d="M-36.17 1758.3L-36.17 1753.95C-36.17 1752.54 -35.04 1751.41 -33.65 1751.41L-29.32 1751.41C-27.92 1751.41 -26.79 1752.54 -26.79 1753.95L-26.79 1758.3C-26.79 1759.71 -27.92 1760.85 -29.32 1760.85L-33.65 1760.85C-35.04 1760.85 -36.17 1759.71 -36.17 1758.3Z" fill="#EEEEEE" fill-opacity="1.000000" fill-rule="evenodd"/>
		<path id="Vector" d="M-15.84 1758.3L-15.84 1753.95C-15.84 1752.54 -14.71 1751.41 -13.31 1751.41L-8.98 1751.41C-7.59 1751.41 -6.46 1752.54 -6.46 1753.95L-6.46 1758.3C-6.46 1759.71 -7.59 1760.85 -8.98 1760.85L-13.31 1760.85C-14.71 1760.85 -15.84 1759.71 -15.84 1758.3Z" fill="#EEEEEE" fill-opacity="1.000000" fill-rule="evenodd"/>
		<path id="Vector" d="M4.49 1758.3L4.49 1753.95C4.49 1752.54 5.62 1751.41 7.01 1751.41L11.34 1751.41C12.74 1751.41 13.87 1752.54 13.87 1753.95L13.87 1758.3C13.87 1759.71 12.74 1760.85 11.34 1760.85L7.01 1760.85C5.62 1760.85 4.49 1759.71 4.49 1758.3Z" fill="#EEEEEE" fill-opacity="1.000000" fill-rule="evenodd"/>
		<path id="Vector" d="M24.82 1758.3L24.82 1753.95C24.82 1752.54 25.95 1751.41 27.34 1751.41L31.67 1751.41C33.06 1751.41 34.2 1752.54 34.2 1753.95L34.2 1758.3C34.2 1759.71 33.06 1760.85 31.67 1760.85L27.34 1760.85C25.95 1760.85 24.82 1759.71 24.82 1758.3Z" fill="#EEEEEE" fill-opacity="1.000000" fill-rule="evenodd"/>
		<path id="Vector" d="M45.15 1758.3L45.15 1753.95C45.15 1752.54 46.28 1751.41 47.67 1751.41L52 1751.41C53.39 1751.41 54.52 1752.54 54.52 1753.95L54.52 1758.3C54.52 1759.71 53.39 1760.85 52 1760.85L47.67 1760.85C46.28 1760.85 45.15 1759.71 45.15 1758.3Z" fill="#EEEEEE" fill-opacity="1.000000" fill-rule="evenodd"/>
		<path id="Vector" d="M-36.17 1738.85L-36.17 1734.5C-36.17 1733.09 -35.04 1731.96 -33.65 1731.96L-29.32 1731.96C-27.92 1731.96 -26.79 1733.09 -26.79 1734.5L-26.79 1738.85C-26.79 1740.26 -27.92 1741.4 -29.32 1741.4L-33.65 1741.4C-35.04 1741.4 -36.17 1740.26 -36.17 1738.85Z" fill="#EEEEEE" fill-opacity="1.000000" fill-rule="evenodd"/>
		<path id="Vector" d="M-15.84 1738.85L-15.84 1734.5C-15.84 1733.09 -14.71 1731.96 -13.31 1731.96L-8.98 1731.96C-7.59 1731.96 -6.46 1733.09 -6.46 1734.5L-6.46 1738.85C-6.46 1740.26 -7.59 1741.4 -8.98 1741.4L-13.31 1741.4C-14.71 1741.4 -15.84 1740.26 -15.84 1738.85Z" fill="#EEEEEE" fill-opacity="1.000000" fill-rule="evenodd"/>
		<path id="Vector" d="M4.49 1738.85L4.49 1734.5C4.49 1733.09 5.62 1731.96 7.01 1731.96L11.34 1731.96C12.74 1731.96 13.87 1733.09 13.87 1734.5L13.87 1738.85C13.87 1740.26 12.74 1741.4 11.34 1741.4L7.01 1741.4C5.62 1741.4 4.49 1740.26 4.49 1738.85Z" fill="#EEEEEE" fill-opacity="1.000000" fill-rule="evenodd"/>
		<path id="Vector" d="M24.82 1738.85L24.82 1734.5C24.82 1733.09 25.95 1731.96 27.34 1731.96L31.67 1731.96C33.06 1731.96 34.2 1733.09 34.2 1734.5L34.2 1738.85C34.2 1740.26 33.06 1741.4 31.67 1741.4L27.34 1741.4C25.95 1741.4 24.82 1740.26 24.82 1738.85Z" fill="#EEEEEE" fill-opacity="1.000000" fill-rule="evenodd"/>
		<path id="Vector" d="M45.15 1738.85L45.15 1734.5C45.15 1733.09 46.28 1731.96 47.67 1731.96L52 1731.96C53.39 1731.96 54.52 1733.09 54.52 1734.5L54.52 1738.85C54.52 1740.26 53.39 1741.4 52 1741.4L47.67 1741.4C46.28 1741.4 45.15 1740.26 45.15 1738.85Z" fill="#EEEEEE" fill-opacity="1.000000" fill-rule="evenodd"/>
		<path id="Vector" d="M-34.29 1718.13L-34.29 1715.51C-34.29 1714.67 -33.62 1713.99 -32.78 1713.99L-30.18 1713.99C-29.34 1713.99 -28.67 1714.67 -28.67 1715.51L-28.67 1718.13C-28.67 1718.97 -29.34 1719.66 -30.18 1719.66L-32.78 1719.66C-33.62 1719.66 -34.29 1718.97 -34.29 1718.13Z" fill="#EEEEEE" fill-opacity="1.000000" fill-rule="evenodd"/>
		<path id="Vector" d="M-13.96 1718.13L-13.96 1715.51C-13.96 1714.67 -13.28 1713.99 -12.45 1713.99L-9.85 1713.99C-9.01 1713.99 -8.33 1714.67 -8.33 1715.51L-8.33 1718.13C-8.33 1718.97 -9.01 1719.66 -9.85 1719.66L-12.45 1719.66C-13.28 1719.66 -13.96 1718.97 -13.96 1718.13Z" fill="#EEEEEE" fill-opacity="1.000000" fill-rule="evenodd"/>
		<path id="Vector" d="M6.37 1718.13L6.37 1715.51C6.37 1714.67 7.04 1713.99 7.88 1713.99L10.48 1713.99C11.32 1713.99 11.99 1714.67 11.99 1715.51L11.99 1718.13C11.99 1718.97 11.32 1719.66 10.48 1719.66L7.88 1719.66C7.04 1719.66 6.37 1718.97 6.37 1718.13Z" fill="#EEEEEE" fill-opacity="1.000000" fill-rule="evenodd"/>
		<path id="Vector" d="M26.69 1718.13L26.69 1715.51C26.69 1714.67 27.37 1713.99 28.21 1713.99L30.81 1713.99C31.64 1713.99 32.32 1714.67 32.32 1715.51L32.32 1718.13C32.32 1718.97 31.64 1719.66 30.81 1719.66L28.21 1719.66C27.37 1719.66 26.69 1718.97 26.69 1718.13Z" fill="#EEEEEE" fill-opacity="1.000000" fill-rule="evenodd"/>
		<path id="Vector" d="M47.02 1718.13L47.02 1715.51C47.02 1714.67 47.7 1713.99 48.54 1713.99L51.14 1713.99C51.97 1713.99 52.65 1714.67 52.65 1715.51L52.65 1718.13C52.65 1718.97 51.97 1719.66 51.14 1719.66L48.54 1719.66C47.7 1719.66 47.02 1718.97 47.02 1718.13Z" fill="#EEEEEE" fill-opacity="1.000000" fill-rule="evenodd"/>
		<path id="Vector" d="M-34.29 1698.68L-34.29 1696.07C-34.29 1695.22 -33.62 1694.54 -32.78 1694.54L-30.18 1694.54C-29.34 1694.54 -28.67 1695.22 -28.67 1696.07L-28.67 1698.68C-28.67 1699.53 -29.34 1700.21 -30.18 1700.21L-32.78 1700.21C-33.62 1700.21 -34.29 1699.53 -34.29 1698.68Z" fill="#EEEEEE" fill-opacity="1.000000" fill-rule="evenodd"/>
		<path id="Vector" d="M-13.96 1698.68L-13.96 1696.07C-13.96 1695.22 -13.28 1694.54 -12.45 1694.54L-9.85 1694.54C-9.01 1694.54 -8.33 1695.22 -8.33 1696.07L-8.33 1698.68C-8.33 1699.53 -9.01 1700.21 -9.85 1700.21L-12.45 1700.21C-13.28 1700.21 -13.96 1699.53 -13.96 1698.68Z" fill="#EEEEEE" fill-opacity="1.000000" fill-rule="evenodd"/>
		<path id="Vector" d="M6.37 1698.68L6.37 1696.07C6.37 1695.22 7.04 1694.54 7.88 1694.54L10.48 1694.54C11.32 1694.54 11.99 1695.22 11.99 1696.07L11.99 1698.68C11.99 1699.53 11.32 1700.21 10.48 1700.21L7.88 1700.21C7.04 1700.21 6.37 1699.53 6.37 1698.68Z" fill="#EEEEEE" fill-opacity="1.000000" fill-rule="evenodd"/>
		<path id="Vector" d="M26.69 1698.68L26.69 1696.07C26.69 1695.22 27.37 1694.54 28.21 1694.54L30.81 1694.54C31.64 1694.54 32.32 1695.22 32.32 1696.07L32.32 1698.68C32.32 1699.53 31.64 1700.21 30.81 1700.21L28.21 1700.21C27.37 1700.21 26.69 1699.53 26.69 1698.68Z" fill="#EEEEEE" fill-opacity="1.000000" fill-rule="evenodd"/>
		<path id="Vector" d="M47.02 1698.68L47.02 1696.07C47.02 1695.22 47.7 1694.54 48.54 1694.54L51.14 1694.54C51.97 1694.54 52.65 1695.22 52.65 1696.07L52.65 1698.68C52.65 1699.53 51.97 1700.21 51.14 1700.21L48.54 1700.21C47.7 1700.21 47.02 1699.53 47.02 1698.68Z" fill="#EEEEEE" fill-opacity="1.000000" fill-rule="evenodd"/>
		<path id="Vector" d="M-34.29 1679.23L-34.29 1676.62C-34.29 1675.77 -33.62 1675.09 -32.78 1675.09L-30.18 1675.09C-29.34 1675.09 -28.67 1675.77 -28.67 1676.62L-28.67 1679.23C-28.67 1680.08 -29.34 1680.76 -30.18 1680.76L-32.78 1680.76C-33.62 1680.76 -34.29 1680.08 -34.29 1679.23Z" fill="#EEEEEE" fill-opacity="1.000000" fill-rule="evenodd"/>
		<path id="Vector" d="M-13.96 1679.23L-13.96 1676.62C-13.96 1675.77 -13.28 1675.09 -12.45 1675.09L-9.85 1675.09C-9.01 1675.09 -8.33 1675.77 -8.33 1676.62L-8.33 1679.23C-8.33 1680.08 -9.01 1680.76 -9.85 1680.76L-12.45 1680.76C-13.28 1680.76 -13.96 1680.08 -13.96 1679.23Z" fill="#EEEEEE" fill-opacity="1.000000" fill-rule="evenodd"/>
		<path id="Vector" d="M6.37 1679.23L6.37 1676.62C6.37 1675.77 7.04 1675.09 7.88 1675.09L10.48 1675.09C11.32 1675.09 11.99 1675.77 11.99 1676.62L11.99 1679.23C11.99 1680.08 11.32 1680.76 10.48 1680.76L7.88 1680.76C7.04 1680.76 6.37 1680.08 6.37 1679.23Z" fill="#EEEEEE" fill-opacity="1.000000" fill-rule="evenodd"/>
		<path id="Vector" d="M26.69 1679.23L26.69 1676.62C26.69 1675.77 27.37 1675.09 28.21 1675.09L30.81 1675.09C31.64 1675.09 32.32 1675.77 32.32 1676.62L32.32 1679.23C32.32 1680.08 31.64 1680.76 30.81 1680.76L28.21 1680.76C27.37 1680.76 26.69 1680.08 26.69 1679.23Z" fill="#EEEEEE" fill-opacity="1.000000" fill-rule="evenodd"/>
		<path id="Vector" d="M47.02 1679.23L47.02 1676.62C47.02 1675.77 47.7 1675.09 48.54 1675.09L51.14 1675.09C51.97 1675.09 52.65 1675.77 52.65 1676.62L52.65 1679.23C52.65 1680.08 51.97 1680.76 51.14 1680.76L48.54 1680.76C47.7 1680.76 47.02 1680.08 47.02 1679.23Z" fill="#EEEEEE" fill-opacity="1.000000" fill-rule="evenodd"/>
		<path id="Vector" d="M-34.29 1659.77L-34.29 1657.16C-34.29 1656.31 -33.62 1655.63 -32.78 1655.63L-30.18 1655.63C-29.34 1655.63 -28.67 1656.31 -28.67 1657.16L-28.67 1659.77C-28.67 1660.62 -29.34 1661.3 -30.18 1661.3L-32.78 1661.3C-33.62 1661.3 -34.29 1660.62 -34.29 1659.77Z" fill="#EEEEEE" fill-opacity="1.000000" fill-rule="evenodd"/>
		<path id="Vector" d="M-13.96 1659.77L-13.96 1657.16C-13.96 1656.31 -13.28 1655.63 -12.45 1655.63L-9.85 1655.63C-9.01 1655.63 -8.33 1656.31 -8.33 1657.16L-8.33 1659.77C-8.33 1660.62 -9.01 1661.3 -9.85 1661.3L-12.45 1661.3C-13.28 1661.3 -13.96 1660.62 -13.96 1659.77Z" fill="#EEEEEE" fill-opacity="1.000000" fill-rule="evenodd"/>
		<path id="Vector" d="M6.37 1659.77L6.37 1657.16C6.37 1656.31 7.04 1655.63 7.88 1655.63L10.48 1655.63C11.32 1655.63 11.99 1656.31 11.99 1657.16L11.99 1659.77C11.99 1660.62 11.32 1661.3 10.48 1661.3L7.88 1661.3C7.04 1661.3 6.37 1660.62 6.37 1659.77Z" fill="#EEEEEE" fill-opacity="1.000000" fill-rule="evenodd"/>
		<path id="Vector" d="M26.69 1659.77L26.69 1657.16C26.69 1656.31 27.37 1655.63 28.21 1655.63L30.81 1655.63C31.64 1655.63 32.32 1656.31 32.32 1657.16L32.32 1659.77C32.32 1660.62 31.64 1661.3 30.81 1661.3L28.21 1661.3C27.37 1661.3 26.69 1660.62 26.69 1659.77Z" fill="#EEEEEE" fill-opacity="1.000000" fill-rule="evenodd"/>
		<path id="Vector" d="M47.02 1659.77L47.02 1657.16C47.02 1656.31 47.7 1655.63 48.54 1655.63L51.14 1655.63C51.97 1655.63 52.65 1656.31 52.65 1657.16L52.65 1659.77C52.65 1660.62 51.97 1661.3 51.14 1661.3L48.54 1661.3C47.7 1661.3 47.02 1660.62 47.02 1659.77Z" fill="#EEEEEE" fill-opacity="1.000000" fill-rule="evenodd"/>
		<path id="Vector" d="M-34.29 1640.32L-34.29 1637.71C-34.29 1636.86 -33.62 1636.18 -32.78 1636.18L-30.18 1636.18C-29.34 1636.18 -28.67 1636.86 -28.67 1637.71L-28.67 1640.32C-28.67 1641.17 -29.34 1641.85 -30.18 1641.85L-32.78 1641.85C-33.62 1641.85 -34.29 1641.17 -34.29 1640.32Z" fill="#EEEEEE" fill-opacity="1.000000" fill-rule="evenodd"/>
		<path id="Vector" d="M-13.96 1640.32L-13.96 1637.71C-13.96 1636.86 -13.28 1636.18 -12.45 1636.18L-9.85 1636.18C-9.01 1636.18 -8.33 1636.86 -8.33 1637.71L-8.33 1640.32C-8.33 1641.17 -9.01 1641.85 -9.85 1641.85L-12.45 1641.85C-13.28 1641.85 -13.96 1641.17 -13.96 1640.32Z" fill="#EEEEEE" fill-opacity="1.000000" fill-rule="evenodd"/>
		<path id="Vector" d="M6.37 1640.32L6.37 1637.71C6.37 1636.86 7.04 1636.18 7.88 1636.18L10.48 1636.18C11.32 1636.18 11.99 1636.86 11.99 1637.71L11.99 1640.32C11.99 1641.17 11.32 1641.85 10.48 1641.85L7.88 1641.85C7.04 1641.85 6.37 1641.17 6.37 1640.32Z" fill="#EEEEEE" fill-opacity="1.000000" fill-rule="evenodd"/>
		<path id="Vector" d="M26.69 1640.32L26.69 1637.71C26.69 1636.86 27.37 1636.18 28.21 1636.18L30.81 1636.18C31.64 1636.18 32.32 1636.86 32.32 1637.71L32.32 1640.32C32.32 1641.17 31.64 1641.85 30.81 1641.85L28.21 1641.85C27.37 1641.85 26.69 1641.17 26.69 1640.32Z" fill="#EEEEEE" fill-opacity="1.000000" fill-rule="evenodd"/>
		<path id="Vector" d="M47.02 1640.32L47.02 1637.71C47.02 1636.86 47.7 1636.18 48.54 1636.18L51.14 1636.18C51.97 1636.18 52.65 1636.86 52.65 1637.71L52.65 1640.32C52.65 1641.17 51.97 1641.85 51.14 1641.85L48.54 1641.85C47.7 1641.85 47.02 1641.17 47.02 1640.32Z" fill="#EEEEEE" fill-opacity="1.000000" fill-rule="evenodd"/>
		<path id="Vector" d="M663.68 757.09L663.68 732.27C663.68 724.29 670.1 717.82 678.03 717.82L702.66 717.82C710.58 717.82 717 724.29 717 732.27L717 757.09C717 765.07 710.58 771.54 702.66 771.54L678.03 771.54C670.1 771.54 663.68 765.07 663.68 757.09Z" fill="#EEEEEE" fill-opacity="1.000000" fill-rule="evenodd"/>
		<path id="Vector" d="M735.68 757.09L735.68 732.27C735.68 724.29 742.1 717.82 750.03 717.82L774.65 717.82C782.58 717.82 789 724.29 789 732.27L789 757.09C789 765.07 782.58 771.54 774.65 771.54L750.03 771.54C742.1 771.54 735.68 765.07 735.68 757.09Z" fill="#EEEEEE" fill-opacity="1.000000" fill-rule="evenodd"/>
		<path id="Vector" d="M807.68 757.09L807.68 732.27C807.68 724.29 814.1 717.82 822.02 717.82L846.65 717.82C854.57 717.82 860.99 724.29 860.99 732.27L860.99 757.09C860.99 765.07 854.57 771.54 846.65 771.54L822.02 771.54C814.1 771.54 807.68 765.07 807.68 757.09Z" fill="#EEEEEE" fill-opacity="1.000000" fill-rule="evenodd"/>
		<path id="Vector" d="M879.68 757.09L879.68 732.27C879.68 724.29 886.1 717.82 894.02 717.82L918.65 717.82C926.57 717.82 932.99 724.29 932.99 732.27L932.99 757.09C932.99 765.07 926.57 771.54 918.65 771.54L894.02 771.54C886.1 771.54 879.68 765.07 879.68 757.09Z" fill="#EEEEEE" fill-opacity="1.000000" fill-rule="evenodd"/>
		<path id="Vector" d="M951.68 757.09L951.68 732.27C951.68 724.29 958.1 717.82 966.02 717.82L990.65 717.82C998.57 717.82 1005 724.29 1005 732.27L1005 757.09C1005 765.07 998.57 771.54 990.65 771.54L966.02 771.54C958.1 771.54 951.68 765.07 951.68 757.09Z" fill="#EEEEEE" fill-opacity="1.000000" fill-rule="evenodd"/>
		<path id="Vector" d="M663.68 688.14L663.68 663.32C663.68 655.34 670.1 648.87 678.03 648.87L702.66 648.87C710.58 648.87 717 655.34 717 663.32L717 688.14C717 696.12 710.58 702.59 702.66 702.59L678.03 702.59C670.1 702.59 663.68 696.12 663.68 688.14Z" fill="#EEEEEE" fill-opacity="1.000000" fill-rule="evenodd"/>
		<path id="Vector" d="M735.68 688.14L735.68 663.32C735.68 655.34 742.1 648.87 750.03 648.87L774.65 648.87C782.58 648.87 789 655.34 789 663.32L789 688.14C789 696.12 782.58 702.59 774.65 702.59L750.03 702.59C742.1 702.59 735.68 696.12 735.68 688.14Z" fill="#EEEEEE" fill-opacity="1.000000" fill-rule="evenodd"/>
		<path id="Vector" d="M807.68 688.14L807.68 663.32C807.68 655.34 814.1 648.87 822.02 648.87L846.65 648.87C854.57 648.87 860.99 655.34 860.99 663.32L860.99 688.14C860.99 696.12 854.57 702.59 846.65 702.59L822.02 702.59C814.1 702.59 807.68 696.12 807.68 688.14Z" fill="#EEEEEE" fill-opacity="1.000000" fill-rule="evenodd"/>
		<path id="Vector" d="M879.68 688.14L879.68 663.32C879.68 655.34 886.1 648.87 894.02 648.87L918.65 648.87C926.57 648.87 932.99 655.34 932.99 663.32L932.99 688.14C932.99 696.12 926.57 702.59 918.65 702.59L894.02 702.59C886.1 702.59 879.68 696.12 879.68 688.14Z" fill="#EEEEEE" fill-opacity="1.000000" fill-rule="evenodd"/>
		<path id="Vector" d="M951.68 688.14L951.68 663.32C951.68 655.34 958.1 648.87 966.02 648.87L990.65 648.87C998.57 648.87 1005 655.34 1005 663.32L1005 688.14C1005 696.12 998.57 702.59 990.65 702.59L966.02 702.59C958.1 702.59 951.68 696.12 951.68 688.14Z" fill="#EEEEEE" fill-opacity="1.000000" fill-rule="evenodd"/>
		<path id="Vector" d="M663.68 619.17L663.68 594.36C663.68 586.38 670.1 579.91 678.03 579.91L702.66 579.91C710.58 579.91 717 586.38 717 594.36L717 619.17C717 627.15 710.58 633.63 702.66 633.63L678.03 633.63C670.1 633.63 663.68 627.15 663.68 619.17Z" fill="#EEEEEE" fill-opacity="1.000000" fill-rule="evenodd"/>
		<path id="Vector" d="M735.68 619.17L735.68 594.36C735.68 586.38 742.1 579.91 750.03 579.91L774.65 579.91C782.58 579.91 789 586.38 789 594.36L789 619.17C789 627.15 782.58 633.63 774.65 633.63L750.03 633.63C742.1 633.63 735.68 627.15 735.68 619.17Z" fill="#EEEEEE" fill-opacity="1.000000" fill-rule="evenodd"/>
		<path id="Vector" d="M807.68 619.17L807.68 594.36C807.68 586.38 814.1 579.91 822.02 579.91L846.65 579.91C854.57 579.91 860.99 586.38 860.99 594.36L860.99 619.17C860.99 627.15 854.57 633.63 846.65 633.63L822.02 633.63C814.1 633.63 807.68 627.15 807.68 619.17Z" fill="#EEEEEE" fill-opacity="1.000000" fill-rule="evenodd"/>
		<path id="Vector" d="M879.68 619.17L879.68 594.36C879.68 586.38 886.1 579.91 894.02 579.91L918.65 579.91C926.57 579.91 932.99 586.38 932.99 594.36L932.99 619.17C932.99 627.15 926.57 633.63 918.65 633.63L894.02 633.63C886.1 633.63 879.68 627.15 879.68 619.17Z" fill="#EEEEEE" fill-opacity="1.000000" fill-rule="evenodd"/>
		<path id="Vector" d="M951.68 619.17L951.68 594.36C951.68 586.38 958.1 579.91 966.02 579.91L990.65 579.91C998.57 579.91 1005 586.38 1005 594.36L1005 619.17C1005 627.15 998.57 633.63 990.65 633.63L966.02 633.63C958.1 633.63 951.68 627.15 951.68 619.17Z" fill="#EEEEEE" fill-opacity="1.000000" fill-rule="evenodd"/>
		<path id="Vector" d="M663.68 550.23L663.68 525.42C663.68 517.44 670.1 510.97 678.03 510.97L702.66 510.97C710.58 510.97 717 517.44 717 525.42L717 550.23C717 558.21 710.58 564.68 702.66 564.68L678.03 564.68C670.1 564.68 663.68 558.21 663.68 550.23Z" fill="#EEEEEE" fill-opacity="1.000000" fill-rule="evenodd"/>
		<path id="Vector" d="M735.68 550.23L735.68 525.42C735.68 517.44 742.1 510.97 750.03 510.97L774.65 510.97C782.58 510.97 789 517.44 789 525.42L789 550.23C789 558.21 782.58 564.68 774.65 564.68L750.03 564.68C742.1 564.68 735.68 558.21 735.68 550.23Z" fill="#EEEEEE" fill-opacity="1.000000" fill-rule="evenodd"/>
		<path id="Vector" d="M807.68 550.23L807.68 525.42C807.68 517.44 814.1 510.97 822.02 510.97L846.65 510.97C854.57 510.97 860.99 517.44 860.99 525.42L860.99 550.23C860.99 558.21 854.57 564.68 846.65 564.68L822.02 564.68C814.1 564.68 807.68 558.21 807.68 550.23Z" fill="#EEEEEE" fill-opacity="1.000000" fill-rule="evenodd"/>
		<path id="Vector" d="M879.68 550.23L879.68 525.42C879.68 517.44 886.1 510.97 894.02 510.97L918.65 510.97C926.57 510.97 932.99 517.44 932.99 525.42L932.99 550.23C932.99 558.21 926.57 564.68 918.65 564.68L894.02 564.68C886.1 564.68 879.68 558.21 879.68 550.23Z" fill="#EEEEEE" fill-opacity="1.000000" fill-rule="evenodd"/>
		<path id="Vector" d="M951.68 550.23L951.68 525.42C951.68 517.44 958.1 510.97 966.02 510.97L990.65 510.97C998.57 510.97 1005 517.44 1005 525.42L1005 550.23C1005 558.21 998.57 564.68 990.65 564.68L966.02 564.68C958.1 564.68 951.68 558.21 951.68 550.23Z" fill="#EEEEEE" fill-opacity="1.000000" fill-rule="evenodd"/>
		<path id="Vector" d="M663.68 481.28L663.68 456.47C663.68 448.49 670.1 442.02 678.03 442.02L702.66 442.02C710.58 442.02 717 448.49 717 456.47L717 481.28C717 489.26 710.58 495.73 702.66 495.73L678.03 495.73C670.1 495.73 663.68 489.26 663.68 481.28Z" fill="#EEEEEE" fill-opacity="1.000000" fill-rule="evenodd"/>
		<path id="Vector" d="M735.68 481.28L735.68 456.47C735.68 448.49 742.1 442.02 750.03 442.02L774.65 442.02C782.58 442.02 789 448.49 789 456.47L789 481.28C789 489.26 782.58 495.73 774.65 495.73L750.03 495.73C742.1 495.73 735.68 489.26 735.68 481.28Z" fill="#EEEEEE" fill-opacity="1.000000" fill-rule="evenodd"/>
		<path id="Vector" d="M807.68 481.28L807.68 456.47C807.68 448.49 814.1 442.02 822.02 442.02L846.65 442.02C854.57 442.02 860.99 448.49 860.99 456.47L860.99 481.28C860.99 489.26 854.57 495.73 846.65 495.73L822.02 495.73C814.1 495.73 807.68 489.26 807.68 481.28Z" fill="#EEEEEE" fill-opacity="1.000000" fill-rule="evenodd"/>
		<path id="Vector" d="M879.68 481.28L879.68 456.47C879.68 448.49 886.1 442.02 894.02 442.02L918.65 442.02C926.57 442.02 932.99 448.49 932.99 456.47L932.99 481.28C932.99 489.26 926.57 495.73 918.65 495.73L894.02 495.73C886.1 495.73 879.68 489.26 879.68 481.28Z" fill="#EEEEEE" fill-opacity="1.000000" fill-rule="evenodd"/>
		<path id="Vector" d="M951.68 481.28L951.68 456.47C951.68 448.49 958.1 442.02 966.02 442.02L990.65 442.02C998.57 442.02 1005 448.49 1005 456.47L1005 481.28C1005 489.26 998.57 495.73 990.65 495.73L966.02 495.73C958.1 495.73 951.68 489.26 951.68 481.28Z" fill="#EEEEEE" fill-opacity="1.000000" fill-rule="evenodd"/>
		<path id="Vector" d="M673.73 400.73L673.73 385.28C673.73 380.3 677.73 376.27 682.67 376.27L698 376.27C702.94 376.27 706.94 380.3 706.94 385.28L706.94 400.73C706.94 405.7 702.94 409.73 698 409.73L682.67 409.73C677.73 409.73 673.73 405.7 673.73 400.73Z" fill="#EEEEEE" fill-opacity="1.000000" fill-rule="evenodd"/>
		<path id="Vector" d="M745.73 400.73L745.73 385.28C745.73 380.3 749.73 376.27 754.67 376.27L770 376.27C774.93 376.27 778.94 380.3 778.94 385.28L778.94 400.73C778.94 405.7 774.93 409.73 770 409.73L754.67 409.73C749.73 409.73 745.73 405.7 745.73 400.73Z" fill="#EEEEEE" fill-opacity="1.000000" fill-rule="evenodd"/>
		<path id="Vector" d="M817.72 400.73L817.72 385.28C817.72 380.3 821.72 376.27 826.66 376.27L841.99 376.27C846.93 376.27 850.93 380.3 850.93 385.28L850.93 400.73C850.93 405.7 846.93 409.74 841.99 409.74L826.66 409.74C821.72 409.74 817.72 405.7 817.72 400.73Z" fill="#EEEEEE" fill-opacity="1.000000" fill-rule="evenodd"/>
		<path id="Vector" d="M889.72 400.73L889.72 385.28C889.72 380.3 893.72 376.27 898.66 376.27L913.99 376.27C918.93 376.27 922.93 380.3 922.93 385.28L922.93 400.73C922.93 405.7 918.93 409.74 913.99 409.74L898.66 409.74C893.72 409.74 889.72 405.7 889.72 400.73Z" fill="#EEEEEE" fill-opacity="1.000000" fill-rule="evenodd"/>
		<path id="Vector" d="M961.72 400.73L961.72 385.28C961.72 380.3 965.72 376.27 970.66 376.27L985.99 376.27C990.93 376.27 994.93 380.3 994.93 385.28L994.93 400.73C994.93 405.7 990.93 409.74 985.99 409.74L970.66 409.74C965.72 409.74 961.72 405.7 961.72 400.73Z" fill="#EEEEEE" fill-opacity="1.000000" fill-rule="evenodd"/>
		<path id="Vector" d="M673.73 331.79L673.73 316.34C673.73 311.36 677.73 307.33 682.67 307.33L698 307.33C702.94 307.33 706.94 311.36 706.94 316.34L706.94 331.79C706.94 336.76 702.94 340.79 698 340.79L682.67 340.79C677.73 340.79 673.73 336.76 673.73 331.79Z" fill="#EEEEEE" fill-opacity="1.000000" fill-rule="evenodd"/>
		<path id="Vector" d="M745.73 331.79L745.73 316.34C745.73 311.36 749.73 307.33 754.67 307.33L770 307.33C774.93 307.33 778.94 311.36 778.94 316.34L778.94 331.79C778.94 336.76 774.93 340.79 770 340.79L754.67 340.79C749.73 340.79 745.73 336.76 745.73 331.79Z" fill="#EEEEEE" fill-opacity="1.000000" fill-rule="evenodd"/>
		<path id="Vector" d="M817.72 331.79L817.72 316.34C817.72 311.36 821.72 307.33 826.66 307.33L841.99 307.33C846.93 307.33 850.93 311.36 850.93 316.34L850.93 331.79C850.93 336.76 846.93 340.79 841.99 340.79L826.66 340.79C821.72 340.79 817.72 336.76 817.72 331.79Z" fill="#EEEEEE" fill-opacity="1.000000" fill-rule="evenodd"/>
		<path id="Vector" d="M889.72 331.79L889.72 316.34C889.72 311.36 893.72 307.33 898.66 307.33L913.99 307.33C918.93 307.33 922.93 311.36 922.93 316.34L922.93 331.79C922.93 336.76 918.93 340.79 913.99 340.79L898.66 340.79C893.72 340.79 889.72 336.76 889.72 331.79Z" fill="#EEEEEE" fill-opacity="1.000000" fill-rule="evenodd"/>
		<path id="Vector" d="M961.72 331.79L961.72 316.34C961.72 311.36 965.72 307.33 970.66 307.33L985.99 307.33C990.93 307.33 994.93 311.36 994.93 316.34L994.93 331.79C994.93 336.76 990.93 340.79 985.99 340.79L970.66 340.79C965.72 340.79 961.72 336.76 961.72 331.79Z" fill="#EEEEEE" fill-opacity="1.000000" fill-rule="evenodd"/>
		<path id="Vector" d="M673.73 262.83L673.73 247.39C673.73 242.41 677.73 238.38 682.67 238.38L698 238.38C702.94 238.38 706.94 242.41 706.94 247.39L706.94 262.83C706.94 267.81 702.94 271.84 698 271.84L682.67 271.84C677.73 271.84 673.73 267.81 673.73 262.83Z" fill="#EEEEEE" fill-opacity="1.000000" fill-rule="evenodd"/>
		<path id="Vector" d="M745.73 262.83L745.73 247.39C745.73 242.41 749.73 238.38 754.67 238.38L770 238.38C774.93 238.38 778.94 242.41 778.94 247.39L778.94 262.83C778.94 267.81 774.93 271.84 770 271.84L754.67 271.84C749.73 271.84 745.73 267.81 745.73 262.83Z" fill="#EEEEEE" fill-opacity="1.000000" fill-rule="evenodd"/>
		<path id="Vector" d="M817.72 262.83L817.72 247.39C817.72 242.41 821.72 238.38 826.66 238.38L841.99 238.38C846.93 238.38 850.93 242.41 850.93 247.39L850.93 262.83C850.93 267.81 846.93 271.84 841.99 271.84L826.66 271.84C821.72 271.84 817.72 267.81 817.72 262.83Z" fill="#EEEEEE" fill-opacity="1.000000" fill-rule="evenodd"/>
		<path id="Vector" d="M889.72 262.83L889.72 247.39C889.72 242.41 893.72 238.38 898.66 238.38L913.99 238.38C918.93 238.38 922.93 242.41 922.93 247.39L922.93 262.83C922.93 267.81 918.93 271.84 913.99 271.84L898.66 271.84C893.72 271.84 889.72 267.81 889.72 262.83Z" fill="#EEEEEE" fill-opacity="1.000000" fill-rule="evenodd"/>
		<path id="Vector" d="M961.72 262.83L961.72 247.39C961.72 242.41 965.72 238.38 970.66 238.38L985.99 238.38C990.93 238.38 994.93 242.41 994.93 247.39L994.93 262.83C994.93 267.81 990.93 271.84 985.99 271.84L970.66 271.84C965.72 271.84 961.72 267.81 961.72 262.83Z" fill="#EEEEEE" fill-opacity="1.000000" fill-rule="evenodd"/>
		<path id="Vector" d="M673.73 193.87L673.73 178.42C673.73 173.45 677.73 169.42 682.67 169.42L698 169.42C702.94 169.42 706.94 173.45 706.94 178.42L706.94 193.87C706.94 198.85 702.94 202.88 698 202.88L682.67 202.88C677.73 202.88 673.73 198.85 673.73 193.87Z" fill="#EEEEEE" fill-opacity="1.000000" fill-rule="evenodd"/>
		<path id="Vector" d="M745.73 193.87L745.73 178.42C745.73 173.45 749.73 169.42 754.67 169.42L770 169.42C774.93 169.42 778.94 173.45 778.94 178.42L778.94 193.87C778.94 198.85 774.93 202.88 770 202.88L754.67 202.88C749.73 202.88 745.73 198.85 745.73 193.87Z" fill="#EEEEEE" fill-opacity="1.000000" fill-rule="evenodd"/>
		<path id="Vector" d="M817.72 193.87L817.72 178.42C817.72 173.45 821.72 169.42 826.66 169.42L841.99 169.42C846.93 169.42 850.93 173.45 850.93 178.42L850.93 193.87C850.93 198.85 846.93 202.88 841.99 202.88L826.66 202.88C821.72 202.88 817.72 198.85 817.72 193.87Z" fill="#EEEEEE" fill-opacity="1.000000" fill-rule="evenodd"/>
		<path id="Vector" d="M889.72 193.87L889.72 178.42C889.72 173.45 893.72 169.42 898.66 169.42L913.99 169.42C918.93 169.42 922.93 173.45 922.93 178.42L922.93 193.87C922.93 198.85 918.93 202.88 913.99 202.88L898.66 202.88C893.72 202.88 889.72 198.85 889.72 193.87Z" fill="#EEEEEE" fill-opacity="1.000000" fill-rule="evenodd"/>
		<path id="Vector" d="M961.72 193.87L961.72 178.42C961.72 173.45 965.72 169.42 970.66 169.42L985.99 169.42C990.93 169.42 994.93 173.45 994.93 178.42L994.93 193.87C994.93 198.85 990.93 202.88 985.99 202.88L970.66 202.88C965.72 202.88 961.72 198.85 961.72 193.87Z" fill="#EEEEEE" fill-opacity="1.000000" fill-rule="evenodd"/>
		<path id="Vector" d="M673.73 124.92L673.73 109.47C673.73 104.5 677.73 100.46 682.67 100.46L698 100.46C702.94 100.46 706.94 104.5 706.94 109.47L706.94 124.92C706.94 129.89 702.94 133.93 698 133.93L682.67 133.93C677.73 133.93 673.73 129.89 673.73 124.92Z" fill="#EEEEEE" fill-opacity="1.000000" fill-rule="evenodd"/>
		<path id="Vector" d="M745.73 124.92L745.73 109.47C745.73 104.5 749.73 100.46 754.67 100.46L770 100.46C774.93 100.46 778.94 104.5 778.94 109.47L778.94 124.92C778.94 129.89 774.93 133.93 770 133.93L754.67 133.93C749.73 133.93 745.73 129.89 745.73 124.92Z" fill="#EEEEEE" fill-opacity="1.000000" fill-rule="evenodd"/>
		<path id="Vector" d="M817.72 124.92L817.72 109.47C817.72 104.5 821.72 100.46 826.66 100.46L841.99 100.46C846.93 100.46 850.93 104.5 850.93 109.47L850.93 124.92C850.93 129.89 846.93 133.93 841.99 133.93L826.66 133.93C821.72 133.93 817.72 129.89 817.72 124.92Z" fill="#EEEEEE" fill-opacity="1.000000" fill-rule="evenodd"/>
		<path id="Vector" d="M889.72 124.92L889.72 109.47C889.72 104.5 893.72 100.46 898.66 100.46L913.99 100.46C918.93 100.46 922.93 104.5 922.93 109.47L922.93 124.92C922.93 129.89 918.93 133.93 913.99 133.93L898.66 133.93C893.72 133.93 889.72 129.89 889.72 124.92Z" fill="#EEEEEE" fill-opacity="1.000000" fill-rule="evenodd"/>
		<path id="Vector" d="M961.72 124.92L961.72 109.47C961.72 104.5 965.72 100.46 970.66 100.46L985.99 100.46C990.93 100.46 994.93 104.5 994.93 109.47L994.93 124.92C994.93 129.89 990.93 133.93 985.99 133.93L970.66 133.93C965.72 133.93 961.72 129.89 961.72 124.92Z" fill="#EEEEEE" fill-opacity="1.000000" fill-rule="evenodd"/>
		<path id="Vector" d="M680.38 51.48L680.38 42.2C680.38 39.22 682.78 36.8 685.74 36.8L694.95 36.8C697.91 36.8 700.31 39.22 700.31 42.2L700.31 51.48C700.31 54.47 697.91 56.88 694.95 56.88L685.74 56.88C682.78 56.88 680.38 54.47 680.38 51.48Z" fill="#EEEEEE" fill-opacity="1.000000" fill-rule="evenodd"/>
		<path id="Vector" d="M752.37 51.48L752.37 42.2C752.37 39.22 754.77 36.8 757.73 36.8L766.94 36.8C769.9 36.8 772.3 39.22 772.3 42.2L772.3 51.48C772.3 54.47 769.9 56.88 766.94 56.88L757.73 56.88C754.77 56.88 752.37 54.47 752.37 51.48Z" fill="#EEEEEE" fill-opacity="1.000000" fill-rule="evenodd"/>
		<path id="Vector" d="M824.37 51.48L824.37 42.2C824.37 39.22 826.77 36.8 829.73 36.8L838.94 36.8C841.9 36.8 844.3 39.22 844.3 42.2L844.3 51.48C844.3 54.47 841.9 56.88 838.94 56.88L829.73 56.88C826.77 56.88 824.37 54.47 824.37 51.48Z" fill="#EEEEEE" fill-opacity="1.000000" fill-rule="evenodd"/>
		<path id="Vector" d="M896.37 51.48L896.37 42.2C896.37 39.22 898.77 36.8 901.73 36.8L910.94 36.8C913.9 36.8 916.3 39.22 916.3 42.2L916.3 51.48C916.3 54.47 913.9 56.88 910.94 56.88L901.73 56.88C898.77 56.88 896.37 54.47 896.37 51.48Z" fill="#EEEEEE" fill-opacity="1.000000" fill-rule="evenodd"/>
		<path id="Vector" d="M968.37 51.48L968.37 42.2C968.37 39.22 970.76 36.8 973.72 36.8L982.94 36.8C985.9 36.8 988.3 39.22 988.3 42.2L988.3 51.48C988.3 54.47 985.9 56.88 982.94 56.88L973.72 56.88C970.76 56.88 968.37 54.47 968.37 51.48Z" fill="#EEEEEE" fill-opacity="1.000000" fill-rule="evenodd"/>
		<path id="Vector" d="M680.38 -17.46L680.38 -26.74C680.38 -29.72 682.78 -32.14 685.74 -32.14L694.95 -32.14C697.91 -32.14 700.31 -29.72 700.31 -26.74L700.31 -17.46C700.31 -14.48 697.91 -12.06 694.95 -12.06L685.74 -12.06C682.78 -12.06 680.38 -14.48 680.38 -17.46Z" fill="#EEEEEE" fill-opacity="1.000000" fill-rule="evenodd"/>
		<path id="Vector" d="M752.37 -17.46L752.37 -26.74C752.37 -29.72 754.77 -32.14 757.73 -32.14L766.94 -32.14C769.9 -32.14 772.3 -29.72 772.3 -26.74L772.3 -17.46C772.3 -14.48 769.9 -12.06 766.94 -12.06L757.73 -12.06C754.77 -12.06 752.37 -14.48 752.37 -17.46Z" fill="#EEEEEE" fill-opacity="1.000000" fill-rule="evenodd"/>
		<path id="Vector" d="M824.37 -17.46L824.37 -26.74C824.37 -29.72 826.77 -32.14 829.73 -32.14L838.94 -32.14C841.9 -32.14 844.3 -29.72 844.3 -26.74L844.3 -17.46C844.3 -14.48 841.9 -12.06 838.94 -12.06L829.73 -12.06C826.77 -12.06 824.37 -14.48 824.37 -17.46Z" fill="#EEEEEE" fill-opacity="1.000000" fill-rule="evenodd"/>
		<path id="Vector" d="M896.37 -17.46L896.37 -26.74C896.37 -29.72 898.77 -32.14 901.73 -32.14L910.94 -32.14C913.9 -32.14 916.3 -29.72 916.3 -26.74L916.3 -17.46C916.3 -14.48 913.9 -12.06 910.94 -12.06L901.73 -12.06C898.77 -12.06 896.37 -14.48 896.37 -17.46Z" fill="#EEEEEE" fill-opacity="1.000000" fill-rule="evenodd"/>
		<path id="Vector" d="M968.37 -17.46L968.37 -26.74C968.37 -29.72 970.76 -32.14 973.72 -32.14L982.94 -32.14C985.9 -32.14 988.3 -29.72 988.3 -26.74L988.3 -17.46C988.3 -14.48 985.9 -12.06 982.94 -12.06L973.72 -12.06C970.76 -12.06 968.37 -14.48 968.37 -17.46Z" fill="#EEEEEE" fill-opacity="1.000000" fill-rule="evenodd"/>
		<path id="Vector" d="M680.38 -86.41L680.38 -95.69C680.38 -98.67 682.78 -101.09 685.74 -101.09L694.95 -101.09C697.91 -101.09 700.31 -98.67 700.31 -95.69L700.31 -86.41C700.31 -83.43 697.91 -81.01 694.95 -81.01L685.74 -81.01C682.78 -81.01 680.38 -83.43 680.38 -86.41Z" fill="#EEEEEE" fill-opacity="1.000000" fill-rule="evenodd"/>
		<path id="Vector" d="M752.37 -86.41L752.37 -95.69C752.37 -98.67 754.77 -101.09 757.73 -101.09L766.94 -101.09C769.9 -101.09 772.3 -98.67 772.3 -95.69L772.3 -86.41C772.3 -83.43 769.9 -81.01 766.94 -81.01L757.73 -81.01C754.77 -81.01 752.37 -83.43 752.37 -86.41Z" fill="#EEEEEE" fill-opacity="1.000000" fill-rule="evenodd"/>
		<path id="Vector" d="M824.37 -86.41L824.37 -95.69C824.37 -98.67 826.77 -101.09 829.73 -101.09L838.94 -101.09C841.9 -101.09 844.3 -98.67 844.3 -95.69L844.3 -86.41C844.3 -83.43 841.9 -81.01 838.94 -81.01L829.73 -81.01C826.77 -81.01 824.37 -83.43 824.37 -86.41Z" fill="#EEEEEE" fill-opacity="1.000000" fill-rule="evenodd"/>
		<path id="Vector" d="M896.37 -86.41L896.37 -95.69C896.37 -98.67 898.77 -101.09 901.73 -101.09L910.94 -101.09C913.9 -101.09 916.3 -98.67 916.3 -95.69L916.3 -86.41C916.3 -83.43 913.9 -81.01 910.94 -81.01L901.73 -81.01C898.77 -81.01 896.37 -83.43 896.37 -86.41Z" fill="#EEEEEE" fill-opacity="1.000000" fill-rule="evenodd"/>
		<path id="Vector" d="M968.37 -86.41L968.37 -95.69C968.37 -98.67 970.76 -101.09 973.72 -101.09L982.94 -101.09C985.9 -101.09 988.3 -98.67 988.3 -95.69L988.3 -86.41C988.3 -83.43 985.9 -81.01 982.94 -81.01L973.72 -81.01C970.76 -81.01 968.37 -83.43 968.37 -86.41Z" fill="#EEEEEE" fill-opacity="1.000000" fill-rule="evenodd"/>
		<path id="Vector" d="M680.38 -155.37L680.38 -164.65C680.38 -167.64 682.78 -170.05 685.74 -170.05L694.95 -170.05C697.91 -170.05 700.31 -167.64 700.31 -164.65L700.31 -155.37C700.31 -152.39 697.91 -149.97 694.95 -149.97L685.74 -149.97C682.78 -149.97 680.38 -152.39 680.38 -155.37Z" fill="#EEEEEE" fill-opacity="1.000000" fill-rule="evenodd"/>
		<path id="Vector" d="M752.37 -155.37L752.37 -164.65C752.37 -167.64 754.77 -170.05 757.73 -170.05L766.94 -170.05C769.9 -170.05 772.3 -167.64 772.3 -164.65L772.3 -155.37C772.3 -152.39 769.9 -149.97 766.94 -149.97L757.73 -149.97C754.77 -149.97 752.37 -152.39 752.37 -155.37Z" fill="#EEEEEE" fill-opacity="1.000000" fill-rule="evenodd"/>
		<path id="Vector" d="M824.37 -155.37L824.37 -164.65C824.37 -167.64 826.77 -170.05 829.73 -170.05L838.94 -170.05C841.9 -170.05 844.3 -167.64 844.3 -164.65L844.3 -155.37C844.3 -152.39 841.9 -149.97 838.94 -149.97L829.73 -149.97C826.77 -149.97 824.37 -152.39 824.37 -155.37Z" fill="#EEEEEE" fill-opacity="1.000000" fill-rule="evenodd"/>
		<path id="Vector" d="M896.37 -155.37L896.37 -164.65C896.37 -167.64 898.77 -170.05 901.73 -170.05L910.94 -170.05C913.9 -170.05 916.3 -167.64 916.3 -164.65L916.3 -155.37C916.3 -152.39 913.9 -149.97 910.94 -149.97L901.73 -149.97C898.77 -149.97 896.37 -152.39 896.37 -155.37Z" fill="#EEEEEE" fill-opacity="1.000000" fill-rule="evenodd"/>
		<path id="Vector" d="M968.37 -155.37L968.37 -164.65C968.37 -167.64 970.76 -170.05 973.72 -170.05L982.94 -170.05C985.9 -170.05 988.3 -167.64 988.3 -164.65L988.3 -155.37C988.3 -152.39 985.9 -149.97 982.94 -149.97L973.72 -149.97C970.76 -149.97 968.37 -152.39 968.37 -155.37Z" fill="#EEEEEE" fill-opacity="1.000000" fill-rule="evenodd"/>
		<path id="Vector" d="M680.38 -224.32L680.38 -233.61C680.38 -236.59 682.78 -239 685.74 -239L694.95 -239C697.91 -239 700.31 -236.59 700.31 -233.61L700.31 -224.32C700.31 -221.34 697.91 -218.92 694.95 -218.92L685.74 -218.92C682.78 -218.92 680.38 -221.34 680.38 -224.32Z" fill="#EEEEEE" fill-opacity="1.000000" fill-rule="evenodd"/>
		<path id="Vector" d="M752.37 -224.32L752.37 -233.61C752.37 -236.59 754.77 -239 757.73 -239L766.94 -239C769.9 -239 772.3 -236.59 772.3 -233.61L772.3 -224.32C772.3 -221.34 769.9 -218.92 766.94 -218.92L757.73 -218.92C754.77 -218.92 752.37 -221.34 752.37 -224.32Z" fill="#EEEEEE" fill-opacity="1.000000" fill-rule="evenodd"/>
		<path id="Vector" d="M824.37 -224.32L824.37 -233.61C824.37 -236.59 826.77 -239 829.73 -239L838.94 -239C841.9 -239 844.3 -236.59 844.3 -233.61L844.3 -224.32C844.3 -221.34 841.9 -218.92 838.94 -218.92L829.73 -218.92C826.77 -218.92 824.37 -221.34 824.37 -224.32Z" fill="#EEEEEE" fill-opacity="1.000000" fill-rule="evenodd"/>
		<path id="Vector" d="M896.37 -224.32L896.37 -233.61C896.37 -236.59 898.77 -239 901.73 -239L910.94 -239C913.9 -239 916.3 -236.59 916.3 -233.61L916.3 -224.32C916.3 -221.34 913.9 -218.92 910.94 -218.92L901.73 -218.92C898.77 -218.92 896.37 -221.34 896.37 -224.32Z" fill="#EEEEEE" fill-opacity="1.000000" fill-rule="evenodd"/>
		<path id="Vector" d="M968.37 -224.32L968.37 -233.61C968.37 -236.59 970.76 -239 973.72 -239L982.94 -239C985.9 -239 988.3 -236.59 988.3 -233.61L988.3 -224.32C988.3 -221.34 985.9 -218.92 982.94 -218.92L973.72 -218.92C970.76 -218.92 968.37 -221.34 968.37 -224.32Z" fill="#EEEEEE" fill-opacity="1.000000" fill-rule="evenodd"/>
	</g>
</svg>
