<svg width="404" height="404" viewBox="0 0 404 404" fill="none" xmlns="http://www.w3.org/2000/svg">
<path d="M0 0H404V404H0V0Z" fill="white"/>
<path d="M52 52H352V352H52V52Z" fill="#00C7B1"/>
<path fill-rule="evenodd" clip-rule="evenodd" d="M184.273 100H219.727V107.034H233.909V114.069H241V128.138H248.091V163.31H241V177.379H233.909V184.414H219.727V191.448H184.273V184.414H170.091V177.379H163V163.31H155.909V128.138H163V114.069H170.091V107.034H184.273V100ZM180.727 166.828H187.818V170.345H216.182V166.828H223.273V159.793H226.818V131.655H223.273V124.621H216.182V121.103H187.818V124.621H180.727V131.655H177.182V159.793H180.727V166.828Z" fill="black"/>
<path fill-rule="evenodd" clip-rule="evenodd" d="M219.727 209.034H184.273V216.069H166.545V223.103H152.364V233.655H141.727V244.207H131.091V254.759H124V304H280V254.759H272.909V244.207H262.273V233.655H251.636V223.103H237.455V216.069H219.727V209.034ZM173.636 233.655V244.207H163V254.759H152.364V265.31H141.727V282.897H262.273V265.31H251.636V254.759H241V244.207H230.364V233.655H212.636V226.621H191.364V233.655H173.636Z" fill="black"/>
<path d="M288.941 87H300.059V103.941H317V115.059H300.059V132H288.941V115.059H272V103.941H288.941V87Z" fill="black"/>
<path d="M5 5H399V399H5V5Z" stroke="#00C7B1" stroke-width="10"/>
</svg>
