<svg width="109" height="91" viewBox="0 0 109 91" fill="none" xmlns="http://www.w3.org/2000/svg">
<mask id="path-1-outside-1_1_7456" maskUnits="userSpaceOnUse" x="0" y="0" width="109" height="91" fill="black">
<rect fill="white" width="109" height="91"/>
<path fill-rule="evenodd" clip-rule="evenodd" d="M15.5306 1V8.26531H8.26531V11.898H4.63265V15.5306H1V33.6939H4.63265V37.3265H8.26531V40.9592H30.9694V37.3265H34.602V33.6939H38.2347V30.0612H70.0204V33.6939H73.6531V37.3265H77.2857V40.9592H99.9898V37.3265H103.622V33.6939H107.255V15.5306H103.622V11.898H99.9898V8.26531H92.7245V4.63265H89.0918V1H81.8265V8.26531H26.4286V4.63265H22.7959V1H15.5306ZM22.7959 4.63265V8.26531H19.1633V4.63265H22.7959ZM89.0918 4.63265V8.26531H85.4592V4.63265H89.0918ZM99.9898 11.898V15.5306H103.622V33.6939H99.9898V37.3265H77.2857V33.6939H73.6531V30.0612H70.0204V26.4286H38.2347V30.0612H34.602V33.6939H30.9694V37.3265H8.26531V33.6939H4.63265V15.5306H8.26531V11.898H99.9898Z"/>
<path d="M103.622 55.4898H107.255V82.7347H103.622V55.4898Z"/>
<path d="M99.9898 51.8571H103.622V55.4898H99.9898V51.8571Z"/>
<path d="M77.2857 51.8571V48.2245H99.9898V51.8571H77.2857Z"/>
<path d="M73.6531 55.4898V51.8571H77.2857V55.4898H73.6531Z"/>
<path d="M70.0204 59.1224V55.4898H73.6531V59.1224H70.0204Z"/>
<path d="M38.2347 59.1224H70.0204V62.7551H38.2347V59.1224Z"/>
<path d="M34.602 55.4898H38.2347V59.1224H34.602V55.4898Z"/>
<path d="M30.9694 51.8571H34.602V55.4898H30.9694V51.8571Z"/>
<path d="M8.26531 51.8571V48.2245H30.9694V51.8571H8.26531Z"/>
<path d="M4.63265 55.4898V51.8571H8.26531V55.4898H4.63265Z"/>
<path d="M4.63265 82.7347H1V55.4898H4.63265V82.7347Z"/>
<path d="M8.26531 86.3673V82.7347H4.63265V86.3673H8.26531Z"/>
<path d="M8.26531 86.3673V90H99.9898V86.3673H103.622V82.7347H99.9898V86.3673H8.26531Z"/>
<path d="M56.398 47.3163H51.8571V41.8673H56.398V47.3163Z"/>
<path fill-rule="evenodd" clip-rule="evenodd" d="M45.5 39.1429H41.8673V50.0408H45.5V53.6735H62.7551V50.0408H66.3877V39.1429H62.7551V35.5102H45.5V39.1429ZM62.7551 39.1429V50.0408H45.5V39.1429H62.7551Z"/>
</mask>
<path fill-rule="evenodd" clip-rule="evenodd" d="M15.5306 1V8.26531H8.26531V11.898H4.63265V15.5306H1V33.6939H4.63265V37.3265H8.26531V40.9592H30.9694V37.3265H34.602V33.6939H38.2347V30.0612H70.0204V33.6939H73.6531V37.3265H77.2857V40.9592H99.9898V37.3265H103.622V33.6939H107.255V15.5306H103.622V11.898H99.9898V8.26531H92.7245V4.63265H89.0918V1H81.8265V8.26531H26.4286V4.63265H22.7959V1H15.5306ZM22.7959 4.63265V8.26531H19.1633V4.63265H22.7959ZM89.0918 4.63265V8.26531H85.4592V4.63265H89.0918ZM99.9898 11.898V15.5306H103.622V33.6939H99.9898V37.3265H77.2857V33.6939H73.6531V30.0612H70.0204V26.4286H38.2347V30.0612H34.602V33.6939H30.9694V37.3265H8.26531V33.6939H4.63265V15.5306H8.26531V11.898H99.9898Z" fill="black"/>
<path d="M103.622 55.4898H107.255V82.7347H103.622V55.4898Z" fill="black"/>
<path d="M99.9898 51.8571H103.622V55.4898H99.9898V51.8571Z" fill="black"/>
<path d="M77.2857 51.8571V48.2245H99.9898V51.8571H77.2857Z" fill="black"/>
<path d="M73.6531 55.4898V51.8571H77.2857V55.4898H73.6531Z" fill="black"/>
<path d="M70.0204 59.1224V55.4898H73.6531V59.1224H70.0204Z" fill="black"/>
<path d="M38.2347 59.1224H70.0204V62.7551H38.2347V59.1224Z" fill="black"/>
<path d="M34.602 55.4898H38.2347V59.1224H34.602V55.4898Z" fill="black"/>
<path d="M30.9694 51.8571H34.602V55.4898H30.9694V51.8571Z" fill="black"/>
<path d="M8.26531 51.8571V48.2245H30.9694V51.8571H8.26531Z" fill="black"/>
<path d="M4.63265 55.4898V51.8571H8.26531V55.4898H4.63265Z" fill="black"/>
<path d="M4.63265 82.7347H1V55.4898H4.63265V82.7347Z" fill="black"/>
<path d="M8.26531 86.3673V82.7347H4.63265V86.3673H8.26531Z" fill="black"/>
<path d="M8.26531 86.3673V90H99.9898V86.3673H103.622V82.7347H99.9898V86.3673H8.26531Z" fill="black"/>
<path d="M56.398 47.3163H51.8571V41.8673H56.398V47.3163Z" fill="black"/>
<path fill-rule="evenodd" clip-rule="evenodd" d="M45.5 39.1429H41.8673V50.0408H45.5V53.6735H62.7551V50.0408H66.3877V39.1429H62.7551V35.5102H45.5V39.1429ZM62.7551 39.1429V50.0408H45.5V39.1429H62.7551Z" fill="black"/>
<path d="M15.5306 1V0.176317H14.7069V1H15.5306ZM15.5306 8.26531V9.08899H16.3543V8.26531H15.5306ZM8.26531 8.26531V7.44162H7.44162V8.26531H8.26531ZM4.63265 11.898V11.0743H3.80897V11.898H4.63265ZM1 15.5306V14.7069H0.176317V15.5306H1ZM1 33.6939H0.176317V34.5176H1V33.6939ZM4.63265 37.3265H3.80897V38.1502H4.63265V37.3265ZM8.26531 40.9592H7.44162V41.7829H8.26531V40.9592ZM30.9694 40.9592V41.7829H31.7931V40.9592H30.9694ZM34.602 37.3265V38.1502H35.4257V37.3265H34.602ZM38.2347 33.6939V34.5176H39.0584V33.6939H38.2347ZM70.0204 33.6939H69.1967V34.5176H70.0204V33.6939ZM73.6531 37.3265H72.8294V38.1502H73.6531V37.3265ZM77.2857 40.9592H76.462V41.7829H77.2857V40.9592ZM99.9898 40.9592V41.7829H100.813V40.9592H99.9898ZM103.622 37.3265V38.1502H104.446V37.3265H103.622ZM107.255 33.6939V34.5176H108.079V33.6939H107.255ZM107.255 15.5306H108.079V14.7069H107.255V15.5306ZM103.622 11.898H104.446V11.0743H103.622V11.898ZM99.9898 8.26531H100.813V7.44162H99.9898V8.26531ZM92.7245 8.26531H91.9008V9.08899H92.7245V8.26531ZM92.7245 4.63265H93.5482V3.80897H92.7245V4.63265ZM89.0918 1H89.9155V0.176317H89.0918V1ZM81.8265 1V0.176317H81.0028V1H81.8265ZM81.8265 8.26531V9.08899H82.6502V8.26531H81.8265ZM26.4286 8.26531H25.6049V9.08899H26.4286V8.26531ZM26.4286 4.63265H27.2523V3.80897H26.4286V4.63265ZM22.7959 1H23.6196V0.176317H22.7959V1ZM22.7959 8.26531V9.08899H23.6196V8.26531H22.7959ZM19.1633 8.26531H18.3396V9.08899H19.1633V8.26531ZM19.1633 4.63265V3.80897H18.3396V4.63265H19.1633ZM89.0918 8.26531V9.08899H89.9155V8.26531H89.0918ZM85.4592 8.26531H84.6355V9.08899H85.4592V8.26531ZM85.4592 4.63265V3.80897H84.6355V4.63265H85.4592ZM99.9898 15.5306H99.1661V16.3543H99.9898V15.5306ZM99.9898 33.6939V32.8702H99.1661V33.6939H99.9898ZM77.2857 33.6939H78.1094V32.8702H77.2857V33.6939ZM73.6531 30.0612H74.4767V29.2375H73.6531V30.0612ZM70.0204 26.4286H70.8441V25.6049H70.0204V26.4286ZM38.2347 26.4286V25.6049H37.411V26.4286H38.2347ZM34.602 30.0612V29.2375H33.7784V30.0612H34.602ZM30.9694 33.6939V32.8702H30.1457V33.6939H30.9694ZM8.26531 33.6939H9.08899V32.8702H8.26531V33.6939ZM8.26531 15.5306V16.3543H9.08899V15.5306H8.26531ZM107.255 55.4898H108.079V54.6661H107.255V55.4898ZM107.255 82.7347V83.5584H108.079V82.7347H107.255ZM103.622 51.8571H104.446V51.0335H103.622V51.8571ZM99.9898 55.4898H99.1661V56.3135H99.9898V55.4898ZM77.2857 48.2245V47.4008H76.462V48.2245H77.2857ZM99.9898 48.2245H100.813V47.4008H99.9898V48.2245ZM73.6531 51.8571V51.0335H72.8294V51.8571H73.6531ZM77.2857 55.4898V56.3135H78.1094V55.4898H77.2857ZM70.0204 55.4898V54.6661H69.1967V55.4898H70.0204ZM73.6531 59.1224V59.9461H74.4767V59.1224H73.6531ZM70.0204 62.7551V63.5788H70.8441V62.7551H70.0204ZM38.2347 62.7551H37.411V63.5788H38.2347V62.7551ZM38.2347 55.4898H39.0584V54.6661H38.2347V55.4898ZM34.602 59.1224H33.7784V59.9461H34.602V59.1224ZM34.602 51.8571H35.4257V51.0335H34.602V51.8571ZM30.9694 55.4898H30.1457V56.3135H30.9694V55.4898ZM8.26531 48.2245V47.4008H7.44162V48.2245H8.26531ZM30.9694 48.2245H31.7931V47.4008H30.9694V48.2245ZM4.63265 51.8571V51.0335H3.80897V51.8571H4.63265ZM8.26531 55.4898V56.3135H9.08899V55.4898H8.26531ZM1 82.7347H0.176317V83.5584H1V82.7347ZM1 55.4898V54.6661H0.176317V55.4898H1ZM8.26531 82.7347H9.08899V81.911H8.26531V82.7347ZM4.63265 86.3673H3.80897V87.191H4.63265V86.3673ZM8.26531 90H7.44162V90.8237H8.26531V90ZM99.9898 90V90.8237H100.813V90H99.9898ZM103.622 86.3673V87.191H104.446V86.3673H103.622ZM99.9898 82.7347V81.911H99.1661V82.7347H99.9898ZM41.8673 39.1429V38.3192H41.0437V39.1429H41.8673ZM41.8673 50.0408H41.0437V50.8645H41.8673V50.0408ZM45.5 53.6735H44.6763V54.4972H45.5V53.6735ZM62.7551 53.6735V54.4972H63.5788V53.6735H62.7551ZM66.3877 50.0408V50.8645H67.2114V50.0408H66.3877ZM66.3877 39.1429H67.2114V38.3192H66.3877V39.1429ZM62.7551 35.5102H63.5788V34.6865H62.7551V35.5102ZM45.5 35.5102V34.6865H44.6763V35.5102H45.5ZM51.8571 47.3163H51.0335V48.14H51.8571V47.3163ZM56.398 47.3163V48.14H57.2216V47.3163H56.398ZM51.8571 41.8673V41.0437H51.0335V41.8673H51.8571ZM56.398 41.8673H57.2216V41.0437H56.398V41.8673ZM9.08899 11.898V8.26531H7.44162V11.898H9.08899ZM4.63265 12.7216H8.26531V11.0743H4.63265V12.7216ZM5.45634 15.5306V11.898H3.80897V15.5306H5.45634ZM1 16.3543H4.63265V14.7069H1V16.3543ZM4.63265 32.8702H1V34.5176H4.63265V32.8702ZM5.45634 37.3265V33.6939H3.80897V37.3265H5.45634ZM8.26531 36.5028H4.63265V38.1502H8.26531V36.5028ZM9.08899 40.9592V37.3265H7.44162V40.9592H9.08899ZM30.1457 37.3265V40.9592H31.7931V37.3265H30.1457ZM34.602 36.5028H30.9694V38.1502H34.602V36.5028ZM33.7784 33.6939V37.3265H35.4257V33.6939H33.7784ZM38.2347 32.8702H34.602V34.5176H38.2347V32.8702ZM37.411 30.0612V33.6939H39.0584V30.0612H37.411ZM70.0204 29.2375H38.2347V30.8849H70.0204V29.2375ZM70.8441 33.6939V30.0612H69.1967V33.6939H70.8441ZM73.6531 32.8702H70.0204V34.5176H73.6531V32.8702ZM74.4767 37.3265V33.6939H72.8294V37.3265H74.4767ZM77.2857 36.5028H73.6531V38.1502H77.2857V36.5028ZM78.1094 40.9592V37.3265H76.462V40.9592H78.1094ZM99.1661 37.3265V40.9592H100.813V37.3265H99.1661ZM103.622 36.5028H99.9898V38.1502H103.622V36.5028ZM102.799 33.6939V37.3265H104.446V33.6939H102.799ZM107.255 32.8702H103.622V34.5176H107.255V32.8702ZM103.622 16.3543H107.255V14.7069H103.622V16.3543ZM104.446 15.5306V11.898H102.799V15.5306H104.446ZM103.622 11.0743H99.9898V12.7216H103.622V11.0743ZM99.1661 8.26531V11.898H100.813V8.26531H99.1661ZM92.7245 9.08899H99.9898V7.44162H92.7245V9.08899ZM91.9008 4.63265V8.26531H93.5482V4.63265H91.9008ZM89.0918 5.45634H92.7245V3.80897H89.0918V5.45634ZM88.2681 1V4.63265H89.9155V1H88.2681ZM26.4286 9.08899H81.8265V7.44162H26.4286V9.08899ZM25.6049 4.63265V8.26531H27.2523V4.63265H25.6049ZM22.7959 5.45634H26.4286V3.80897H22.7959V5.45634ZM21.9722 1V4.63265H23.6196V1H21.9722ZM23.6196 8.26531V4.63265H21.9722V8.26531H23.6196ZM19.1633 9.08899H22.7959V7.44162H19.1633V9.08899ZM18.3396 4.63265V8.26531H19.9869V4.63265H18.3396ZM22.7959 3.80897H19.1633V5.45634H22.7959V3.80897ZM89.9155 8.26531V4.63265H88.2681V8.26531H89.9155ZM85.4592 9.08899H89.0918V7.44162H85.4592V9.08899ZM84.6355 4.63265V8.26531H86.2829V4.63265H84.6355ZM89.0918 3.80897H85.4592V5.45634H89.0918V3.80897ZM99.1661 11.898V15.5306H100.813V11.898H99.1661ZM99.9898 16.3543H103.622V14.7069H99.9898V16.3543ZM99.9898 34.5176H103.622V32.8702H99.9898V34.5176ZM100.813 37.3265V33.6939H99.1661V37.3265H100.813ZM76.462 33.6939V37.3265H78.1094V33.6939H76.462ZM73.6531 34.5176H77.2857V32.8702H73.6531V34.5176ZM72.8294 30.0612V33.6939H74.4767V30.0612H72.8294ZM70.0204 30.8849H73.6531V29.2375H70.0204V30.8849ZM69.1967 26.4286V30.0612H70.8441V26.4286H69.1967ZM38.2347 27.2523H70.0204V25.6049H38.2347V27.2523ZM39.0584 30.0612V26.4286H37.411V30.0612H39.0584ZM34.602 30.8849H38.2347V29.2375H34.602V30.8849ZM35.4257 33.6939V30.0612H33.7784V33.6939H35.4257ZM30.9694 34.5176H34.602V32.8702H30.9694V34.5176ZM31.7931 37.3265V33.6939H30.1457V37.3265H31.7931ZM7.44162 33.6939V37.3265H9.08899V33.6939H7.44162ZM4.63265 34.5176H8.26531V32.8702H4.63265V34.5176ZM8.26531 14.7069H4.63265V16.3543H8.26531V14.7069ZM7.44162 11.898V15.5306H9.08899V11.898H7.44162ZM107.255 54.6661H103.622V56.3135H107.255V54.6661ZM103.622 83.5584H107.255V81.911H103.622V83.5584ZM103.622 51.0335H99.9898V52.6808H103.622V51.0335ZM104.446 55.4898V51.8571H102.799V55.4898H104.446ZM99.9898 56.3135H103.622V54.6661H99.9898V56.3135ZM99.1661 51.8571V55.4898H100.813V51.8571H99.1661ZM76.462 48.2245V51.8571H78.1094V48.2245H76.462ZM100.813 51.8571V48.2245H99.1661V51.8571H100.813ZM72.8294 51.8571V55.4898H74.4767V51.8571H72.8294ZM77.2857 51.0335H73.6531V52.6808H77.2857V51.0335ZM78.1094 55.4898V51.8571H76.462V55.4898H78.1094ZM73.6531 56.3135H77.2857V54.6661H73.6531V56.3135ZM69.1967 55.4898V59.1224H70.8441V55.4898H69.1967ZM73.6531 54.6661H70.0204V56.3135H73.6531V54.6661ZM74.4767 59.1224V55.4898H72.8294V59.1224H74.4767ZM70.0204 59.9461H73.6531V58.2988H70.0204V59.9461ZM70.0204 58.2988H38.2347V59.9461H70.0204V58.2988ZM70.8441 62.7551V59.1224H69.1967V62.7551H70.8441ZM38.2347 63.5788H70.0204V61.9314H38.2347V63.5788ZM37.411 59.1224V62.7551H39.0584V59.1224H37.411ZM38.2347 54.6661H34.602V56.3135H38.2347V54.6661ZM39.0584 59.1224V55.4898H37.411V59.1224H39.0584ZM34.602 59.9461H38.2347V58.2988H34.602V59.9461ZM33.7784 55.4898V59.1224H35.4257V55.4898H33.7784ZM34.602 51.0335H30.9694V52.6808H34.602V51.0335ZM35.4257 55.4898V51.8571H33.7784V55.4898H35.4257ZM30.9694 56.3135H34.602V54.6661H30.9694V56.3135ZM30.1457 51.8571V55.4898H31.7931V51.8571H30.1457ZM7.44162 48.2245V51.8571H9.08899V48.2245H7.44162ZM31.7931 51.8571V48.2245H30.1457V51.8571H31.7931ZM3.80897 51.8571V55.4898H5.45634V51.8571H3.80897ZM8.26531 51.0335H4.63265V52.6808H8.26531V51.0335ZM9.08899 55.4898V51.8571H7.44162V55.4898H9.08899ZM4.63265 56.3135H8.26531V54.6661H4.63265V56.3135ZM1 83.5584H4.63265V81.911H1V83.5584ZM4.63265 54.6661H1V56.3135H4.63265V54.6661ZM9.08899 86.3673V82.7347H7.44162V86.3673H9.08899ZM8.26531 81.911H4.63265V83.5584H8.26531V81.911ZM3.80897 82.7347V86.3673H5.45634V82.7347H3.80897ZM4.63265 87.191H8.26531V85.5437H4.63265V87.191ZM9.08899 90V86.3673H7.44162V90H9.08899ZM99.1661 86.3673V90H100.813V86.3673H99.1661ZM99.9898 87.191H103.622V85.5437H99.9898V87.191ZM104.446 86.3673V82.7347H102.799V86.3673H104.446ZM103.622 81.911H99.9898V83.5584H103.622V81.911ZM99.1661 82.7347V86.3673H100.813V82.7347H99.1661ZM45.5 38.3192H41.8673V39.9665H45.5V38.3192ZM41.8673 50.8645H45.5V49.2171H41.8673V50.8645ZM46.3237 53.6735V50.0408H44.6763V53.6735H46.3237ZM61.9314 50.0408V53.6735H63.5788V50.0408H61.9314ZM66.3877 49.2171H62.7551V50.8645H66.3877V49.2171ZM62.7551 39.9665H66.3877V38.3192H62.7551V39.9665ZM61.9314 35.5102V39.1429H63.5788V35.5102H61.9314ZM46.3237 39.1429V35.5102H44.6763V39.1429H46.3237ZM51.8571 48.14H56.398V46.4926H51.8571V48.14ZM51.0335 41.8673V47.3163H52.6808V41.8673H51.0335ZM56.398 41.0437H51.8571V42.691H56.398V41.0437ZM57.2216 47.3163V41.8673H55.5743V47.3163H57.2216ZM15.5306 1.82368H22.7959V0.176317H15.5306V1.82368ZM16.3543 8.26531V1H14.7069V8.26531H16.3543ZM8.26531 9.08899H15.5306V7.44162H8.26531V9.08899ZM1.82368 33.6939V15.5306H0.176317V33.6939H1.82368ZM30.9694 40.1355H8.26531V41.7829H30.9694V40.1355ZM99.9898 40.1355H77.2857V41.7829H99.9898V40.1355ZM106.431 15.5306V33.6939H108.079V15.5306H106.431ZM81.8265 1.82368H89.0918V0.176317H81.8265V1.82368ZM82.6502 8.26531V1H81.0028V8.26531H82.6502ZM104.446 33.6939V15.5306H102.799V33.6939H104.446ZM77.2857 38.1502H99.9898V36.5028H77.2857V38.1502ZM8.26531 38.1502H30.9694V36.5028H8.26531V38.1502ZM3.80897 15.5306V33.6939H5.45634V15.5306H3.80897ZM99.9898 11.0743H8.26531V12.7216H99.9898V11.0743ZM108.079 82.7347V55.4898H106.431V82.7347H108.079ZM102.799 55.4898V82.7347H104.446V55.4898H102.799ZM99.9898 47.4008H77.2857V49.0482H99.9898V47.4008ZM77.2857 52.6808H99.9898V51.0335H77.2857V52.6808ZM30.9694 47.4008H8.26531V49.0482H30.9694V47.4008ZM8.26531 52.6808H30.9694V51.0335H8.26531V52.6808ZM0.176317 55.4898V82.7347H1.82368V55.4898H0.176317ZM5.45634 82.7347V55.4898H3.80897V82.7347H5.45634ZM8.26531 87.191H99.9898V85.5437H8.26531V87.191ZM99.9898 89.1763H8.26531V90.8237H99.9898V89.1763ZM62.7551 38.3192H45.5V39.9665H62.7551V38.3192ZM63.5788 50.0408V39.1429H61.9314V50.0408H63.5788ZM45.5 50.8645H62.7551V49.2171H45.5V50.8645ZM46.3237 50.0408V39.1429H44.6763V50.0408H46.3237ZM41.0437 39.1429V50.0408H42.691V39.1429H41.0437ZM62.7551 52.8498H45.5V54.4972H62.7551V52.8498ZM65.5641 39.1429V50.0408H67.2114V39.1429H65.5641ZM45.5 36.3339H62.7551V34.6865H45.5V36.3339Z" fill="black" mask="url(#path-1-outside-1_1_7456)"/>
</svg>
