<svg width="81" height="99" viewBox="0 0 81 99" fill="none" xmlns="http://www.w3.org/2000/svg">
<path fill-rule="evenodd" clip-rule="evenodd" d="M37.6701 8.69363L43.4614 8.69122V2.89563H46.3637V0H52.1592V2.89563H55.0615V5.79463H57.9572V8.69363H60.8528V11.5893H63.7485V14.4915H66.6507V17.3872H69.5464V20.2862H72.4421V30.4285H69.5464V33.3242H66.6507V36.2231H63.7485V39.1189H60.8528V42.0178H57.9572V44.9135H55.0615V47.8124H52.1592V49.9875H46.3637V47.0885H43.4614V38.3982H25.3545V40.5666H22.4588V43.4689H17.3848V46.3646H11.5935V49.2635H5.79795L5.79554 55.0582H0V40.569H2.90227V31.8754H5.79795V28.9765H8.69358V26.0808H11.5893V23.1819H14.4915V20.2862H17.3872V17.3872H20.2829V14.4915H26.0784L26.0808 11.5893H37.6701V8.69363ZM26.0808 17.3848L26.0784 20.2871H23.1827V23.1827H20.2871V26.0817H17.3848V28.9774H14.4892V31.8764H11.5935V34.772H8.69781V40.569H13.761V37.6734H19.559V34.7711H22.4612V32.6026H45.6374V35.4983H49.257L49.2659 42.0169H52.1616V39.1179H55.0573V36.2223H57.9529V33.3233H60.8552V30.4276H63.7509V27.5286H66.6466V23.1827H63.7509V20.2871H60.8552V17.3848H57.9529V14.4891H55.0573V11.5902H52.1616V8.69122H49.257V14.4891H40.57V17.3848H26.0808Z" fill="black"/>
<path fill-rule="evenodd" clip-rule="evenodd" d="M36.8484 60.6018V51.9114H33.9462V49.0125H28.1506V51.1876H25.2484V54.0865H22.3527V56.9822H19.457V59.8811H16.5613V62.7769H13.6591V65.6758H10.7634V68.5715H7.86775V78.7138H10.7634V81.6127H13.6591V84.5085H16.5613V87.4107H19.457V90.3064H22.3527V93.2054H25.2484V96.1044H28.1506V99H33.9462V96.1044H36.8484V90.3088L42.6398 90.3064V87.4107H54.2291L54.2314 84.5085H60.027V81.6127H62.9226V78.7138H65.8183V75.8181H68.7206V72.9192H71.6163V70.0235H74.5119V67.1246H77.4076V58.431H80.3098V43.9418H74.5143L74.5119 49.7365H68.7164V52.6354H62.925V55.5311H57.851V58.4334H54.9554V60.6018H36.8484ZM34.6725 66.3974V63.5017H31.0529L31.0439 56.9831H28.1482V59.8821H25.2526V62.7777H22.3569V65.6767H19.4547V68.5724H16.559V71.4714H13.6633V75.8173H16.559V78.7129H19.4547V81.6152H22.3569V84.5109H25.2526V87.4098H28.1482V90.3088H31.0529V84.5109H39.7399V81.6152H54.2291L54.2314 78.7129H57.1271V75.8173H60.0228V72.9183H62.925V70.0226H65.8207V67.1236H68.7164V64.228H71.612V58.431H66.5488V61.3266H60.7509V64.2289H57.8486V66.3974H34.6725Z" fill="black"/>
</svg>
