<svg width="95" height="97" viewBox="0 0 95 97" fill="none" xmlns="http://www.w3.org/2000/svg">
<path d="M18.9336 0.398438H23.6896V9.31962H32.6108V14.0756H23.6896V22.9968H18.9336V14.0756H10.0125V9.31962H18.9336V0.398438Z" fill="black"/>
<path fill-rule="evenodd" clip-rule="evenodd" d="M21.9219 61.1675V64.5475H18.5419V74.6876H21.9219V78.0676H32.062V74.6876H35.442V64.5475H32.062V61.1675H21.9219Z" fill="black"/>
<path fill-rule="evenodd" clip-rule="evenodd" d="M87.784 18.9655V22.3455H91.164V25.7256H94.544V39.1493H91.164V42.5293H87.3012V45.9093H79.0926V56.0494H75.7125V59.4294H72.3325V62.8094H58.9088V59.4294H53.9839V83.0895H50.6039V86.4695H47.2239V89.8495H43.8438V93.2295H40.4638V96.6095H13.5201V93.2295H10.14V89.8495H6.76003V86.4695H3.38001V83.0895H0V56.1457H3.38001V52.7657H6.76003V49.3856H10.14V46.0056H13.5201V42.6256H33.8001V39.2456H37.1801V35.8656H41.043V32.4856H44.9059V29.1056H48.7688V25.7256H52.6316V22.3455H56.0116V18.9655H59.3917V15.5855H62.7717V12.2055H81.024V15.5855H84.404V18.9655H87.784ZM70.6907 37.5074H67.3107V44.2675H70.6907V47.6475H74.0707V51.0275H70.6907V54.4075H67.3107V57.7875H63.9307V54.4075H60.5506V51.0275H52.342V54.4075H48.962V57.7875H45.582V61.1675H48.962V78.0676H45.582V81.4476H42.202V84.8276H38.822V88.2076H35.442V91.5876H18.5419V88.2076H15.1619V84.8276H11.7819V81.4476H8.40187V78.0676H5.02186V61.1675H8.40187V57.7875H11.7819V54.4075H15.1619V51.0275H18.5419V47.6475H32.062V51.0275H35.442V47.6475H38.822V44.2675H42.202V40.8875H46.0649V37.5074H49.9277V34.1274H53.7906V30.7474H57.6535V27.3674H61.0335V23.9874H64.4135V20.6074H67.7935V17.2274H76.0021V20.6074H79.3821V23.9874H82.7622V27.3674H86.1422V30.7474H89.5222V34.1274H86.1422V37.5074H82.2793V40.8875H76.9678V37.5074H74.0707V34.1274H70.6907V37.5074Z" fill="black"/>
</svg>
