<svg width="74" height="85" viewBox="0 0 74 85" fill="none" xmlns="http://www.w3.org/2000/svg">
<path d="M21.5252 13.7374H45.6334V16.7424H42.6198V19.7475H21.5252V13.7374Z" fill="black"/>
<path d="M21.5252 24.899V30.9091H60.701V27.904H57.6875V24.899H21.5252Z" fill="black"/>
<path d="M57.6875 48.0808V51.0859H51.6604V54.0909H21.5252V48.0808H57.6875Z" fill="black"/>
<path d="M21.5252 36.4899V42.5H54.6739V36.4899H21.5252Z" fill="black"/>
<path fill-rule="evenodd" clip-rule="evenodd" d="M67.589 0V3.00505H70.6026V6.0101H73.6161V69.9747H70.6026V75.9848H67.589V78.9899H64.5755V81.9949H58.5485V85H3.01352V81.9949H0V67.399H3.01352V64.3939H6.02705V61.3889H9.47107V6.0101H12.4846V3.00505H15.4981V0H67.589ZM9.04057 78.9899V75.9848H6.02705V70.404H9.04057V67.399H47.3554V70.404H50.3689V76.4141H52.5214V78.9899H9.04057ZM67.589 66.9697H64.5755V72.9798H61.562V75.9848H56.3959V70.404H53.3824V64.3939H50.3689V61.3889H15.4981V6.0101H67.589V66.9697Z" fill="black"/>
</svg>
